<?xml version="1.0" standalone="no"?>
<!DOCTYPE svg PUBLIC "-//W3C//DTD SVG 20010904//EN"
 "http://www.w3.org/TR/2001/REC-SVG-20010904/DTD/svg10.dtd">
<svg version="1.0" xmlns="http://www.w3.org/2000/svg"
 width="613.000000pt" height="439.000000pt" viewBox="0 0 613.000000 439.000000"
 preserveAspectRatio="xMidYMid meet">

<g transform="translate(0.000000,439.000000) scale(0.100000,-0.100000)"
fill="#034079" stroke="none">
<path d="M3585 3815 c14 -202 17 -549 6 -665 -62 -633 -218 -1066 -545 -1510
-39 -52 -73 -97 -76 -100 -3 -3 -30 -34 -60 -70 -120 -142 -318 -326 -517
-479 -46 -35 -83 -66 -83 -68 0 -3 10 -3 23 1 12 3 108 24 212 46 105 21 312
64 460 95 149 31 281 59 295 62 14 3 78 16 143 29 64 13 119 24 122 24 16 0
-1 -25 -40 -61 -25 -23 -44 -44 -42 -46 3 -2 112 51 243 117 235 120 240 123
286 183 91 118 172 310 214 507 27 128 25 401 -5 533 -44 195 -116 363 -217
509 -62 91 -155 201 -162 194 -2 -3 14 -38 37 -78 66 -121 119 -267 159 -443
20 -91 23 -463 4 -545 -7 -30 -20 -84 -29 -120 -33 -143 -111 -322 -205 -474
-46 -74 -168 -232 -192 -248 -22 -15 -16 24 23 164 47 165 80 328 113 548 20
140 22 192 23 545 0 260 -4 422 -13 485 -7 52 -17 133 -23 180 -24 189 -106
596 -143 710 l-15 45 4 -70z"/>
<path d="M2512 3522 c-18 -37 -32 -73 -32 -81 0 -13 22 -11 64 5 12 5 19 -2
27 -25 13 -38 33 -30 24 10 -5 21 -2 31 9 35 22 8 20 24 -3 24 -15 0 -21 11
-27 47 -5 25 -14 48 -20 50 -5 2 -25 -27 -42 -65z m48 -21 c0 -22 -25 -45 -39
-37 -11 7 -5 32 12 53 12 16 27 7 27 -16z"/>
<path d="M2346 3525 c-15 -20 -25 -39 -21 -43 3 -4 11 1 16 11 18 32 34 18 52
-45 26 -89 25 -88 37 -88 15 0 12 19 -10 80 -11 30 -20 62 -20 70 0 9 -6 24
-13 34 -12 17 -15 15 -41 -19z"/>
<path d="M2175 3464 c-32 -67 8 -174 64 -174 39 0 61 32 61 87 0 77 -29 122
-81 123 -21 0 -30 -8 -44 -36z m85 -16 c33 -54 22 -138 -18 -138 -21 0 -37 24
-52 80 -9 35 -9 46 5 66 21 33 42 30 65 -8z"/>
<path d="M2027 3402 c-18 -20 -23 -72 -8 -72 5 0 11 12 13 26 4 32 32 54 48
38 14 -14 15 -34 6 -116 -7 -59 -5 -68 8 -68 18 0 96 49 96 60 0 19 -16 17
-43 -6 -25 -21 -32 -23 -39 -11 -4 9 -3 37 4 66 10 43 9 53 -6 75 -20 31 -56
34 -79 8z"/>
<path d="M1890 3266 c0 -17 83 -128 101 -134 29 -11 -3 39 -93 143 -5 5 -8 2
-8 -9z"/>
</g>
</svg>
