<?xml version="1.0" encoding="UTF-8"?>
<svg version="1.1" xmlns="http://www.w3.org/2000/svg" width="1254" height="806">
<path d="M0 0 C413.82 0 827.64 0 1254 0 C1254 265.98 1254 531.96 1254 806 C840.18 806 426.36 806 0 806 C0 540.02 0 274.04 0 0 Z " fill="#1E1E1E" transform="translate(0,0)"/>
<path d="M0 0 C5.33096305 4.87997051 8.02081191 9.55164421 8.375 16.8125 C8.2598324 21.96433076 7.0022838 25.81031778 4 30 C-0.2 34 -0.2 34 -3 34 C-2.7834375 32.0509375 -2.7834375 32.0509375 -2.5625 30.0625 C-2.47613281 29.24265625 -2.38976562 28.4228125 -2.30078125 27.578125 C-2.10698375 25.9170036 -1.87778398 24.25944354 -1.60546875 22.609375 C-0.81157833 17.47962153 -0.92133139 14.45876143 -4 10 C-8.36364942 6.04544271 -12.23960416 5.7503234 -18 6 C-40.56239461 10.05884347 -60.66714198 21.65367936 -79 35 C-79.88429688 35.62132812 -80.76859375 36.24265625 -81.6796875 36.8828125 C-93.46942411 45.24407971 -104.61929515 54.48104457 -115.15625 64.3671875 C-117.3321029 66.38164472 -119.53137259 68.32838989 -121.77734375 70.26171875 C-126.40349395 74.29253203 -130.73628372 78.58926735 -135.0625 82.9375 C-135.82626953 83.69740234 -136.59003906 84.45730469 -137.37695312 85.24023438 C-142.12506949 89.99647413 -146.64091976 94.8860596 -151 100 C-151.46092041 100.53391357 -151.92184082 101.06782715 -152.39672852 101.61791992 C-159.10036685 109.39143438 -165.51961289 117.36101984 -171.81005859 125.47070312 C-172.83109032 126.78291953 -173.86186282 128.08754649 -174.89453125 129.390625 C-197.8063497 158.3657584 -217.89391856 191.27670538 -228 227 C-228.19062012 227.66370605 -228.38124023 228.32741211 -228.57763672 229.01123047 C-232.96770024 244.95189012 -233.53521111 263.624813 -225.71484375 278.43359375 C-218.25557394 290.75489458 -205.59725068 298.07377336 -192 302 C-186.74353614 302.49742148 -181.46514045 302.48965798 -176.1875 302.5 C-175.05243515 302.50351974 -175.05243515 302.50351974 -173.8944397 302.5071106 C-159.58655811 302.48881576 -146.67906822 300.28291077 -133 296 C-132.10071777 295.73268066 -131.20143555 295.46536133 -130.27490234 295.18994141 C-101.46760397 286.60624119 -72.67271324 273.18463104 -48 256 C-46.66388672 255.09894531 -46.66388672 255.09894531 -45.30078125 254.1796875 C-37.87274271 249.1063258 -30.80802854 243.59031305 -24.1875 237.5 C-21.86299334 235.46192544 -21.24961098 235.03186523 -18.0625 234.625 C-17.381875 234.74875 -16.70125 234.8725 -16 235 C-15.67 235.99 -15.34 236.98 -15 238 C-36.38222637 274.02150998 -93.65764648 297.87012966 -131.74169922 308.43457031 C-137.02075364 309.7563314 -142.37720122 310.63966214 -147.75390625 311.45703125 C-150.87694956 311.81617215 -150.87694956 311.81617215 -153 313 C-176.55118192 316.99925731 -199.87823262 314.12460611 -219.7265625 300.5234375 C-224.7858491 296.81017279 -228.47383261 292.1501592 -232 287 C-232.51175781 286.27167969 -233.02351563 285.54335938 -233.55078125 284.79296875 C-243.34047576 269.22764327 -241.63626227 246.68379408 -237.90039062 229.46142578 C-227.47060025 185.44667089 -202.33808405 146.16924622 -174.61767578 111.06298828 C-172.74254513 108.67167315 -170.90522181 106.25375005 -169.07226562 103.83007812 C-158.39874194 89.74381278 -146.60734799 76.37672577 -134 64 C-131.40571955 61.41847831 -128.82822721 58.82379754 -126.2734375 56.203125 C-119.85924983 49.64441401 -113.22867799 43.66782984 -106 38 C-104.91964556 37.13005665 -103.8402577 36.2589119 -102.76171875 35.38671875 C-80.66652062 17.62124193 -29.15005023 -21.25653983 0 0 Z " fill="#EDBBAA" transform="translate(737,154)"/>
<path d="M0 0 C5.67422229 -0.04973696 11.34831538 -0.0858782 17.02270508 -0.10986328 C18.94981092 -0.11987087 20.87690178 -0.1334811 22.80395508 -0.15087891 C25.58678913 -0.17535921 28.36942101 -0.18653578 31.15234375 -0.1953125 C32.00271713 -0.20563507 32.85309052 -0.21595764 33.72923279 -0.22659302 C42.52254316 -0.2282126 49.81104521 0.66886448 56.26953125 6.97265625 C62.05489243 13.75053989 62.65576367 20.57962042 62.375 29.3359375 C61.74999762 35.44273157 60.49807057 40.40625864 56.1640625 44.90625 C52.1733571 48.14774251 49.14427634 49.34780542 44 50 C45.1638649 52.35558828 46.33047572 54.70972083 47.5 57.0625 C47.85513672 57.77752686 48.21027344 58.49255371 48.57617188 59.22924805 C51.44120072 64.96245273 54.43747792 70.61619834 57.56054688 76.21313477 C59.10388385 79.03546957 60 80.72748112 60 84 C56.7 84 53.4 84 50 84 C49.69296143 83.38068604 49.38592285 82.76137207 49.06958008 82.12329102 C47.65274468 79.2686005 46.23264267 76.41554657 44.8125 73.5625 C44.08836914 72.10166992 44.08836914 72.10166992 43.34960938 70.61132812 C42.38055916 68.666724 41.39590768 66.72981569 40.39575195 64.80102539 C39 62 39 62 37.95385742 59.30639648 C36.86210157 56.73996878 35.98297136 54.96799467 34 53 C29.87201286 51.76271097 25.96909177 51.83208148 21.6875 51.9375 C17.830625 51.958125 13.97375 51.97875 10 52 C10 62.56 10 73.12 10 84 C7.03 84 4.06 84 1 84 C-0.75439163 82.24560837 -0.11982963 79.94502544 -0.12442017 77.60829163 C-0.12082489 76.8357756 -0.11722961 76.06325958 -0.11352539 75.26733398 C-0.11367142 74.4576416 -0.11381744 73.64794922 -0.1139679 72.8137207 C-0.11326854 70.12448492 -0.1054751 67.43531751 -0.09765625 64.74609375 C-0.09579215 62.88664284 -0.09436821 61.02719144 -0.09336853 59.16773987 C-0.08954271 54.26370904 -0.07971188 49.35970764 -0.06866455 44.45568848 C-0.05845181 39.45548908 -0.05387121 34.45528494 -0.04882812 29.45507812 C-0.03808967 19.63670579 -0.02101248 9.81835534 0 0 Z " fill="#F6F6F6" transform="translate(869,511)"/>
<path d="M0 0 C0.91652344 0.01160156 1.83304688 0.02320313 2.77734375 0.03515625 C3.69644531 0.04417969 4.61554687 0.05320312 5.5625 0.0625 C6.27277344 0.07410156 6.98304688 0.08570313 7.71484375 0.09765625 C10.31661748 6.7763137 12.91802163 13.45510951 15.51220703 20.13671875 C16.16438796 21.81640627 16.81656895 23.49609377 17.46875 25.17578125 C17.80519531 26.0423938 18.14164063 26.90900635 18.48828125 27.80187988 C20.72905042 33.57016293 22.98019015 39.33430754 25.2368927 45.09637451 C26.80812991 49.11163119 28.37379809 53.12904606 29.93850708 57.14685059 C30.70554112 59.11271206 31.47496852 61.07764139 32.24679565 63.04162598 C33.33351255 65.80792098 34.4118016 68.5773645 35.48828125 71.34765625 C35.81573837 72.1752948 36.1431955 73.00293335 36.48057556 73.85565186 C36.92404076 75.00411591 36.92404076 75.00411591 37.37646484 76.17578125 C37.7661293 77.17206543 37.7661293 77.17206543 38.16366577 78.18847656 C38.71484375 80.09765625 38.71484375 80.09765625 38.71484375 84.09765625 C35.74484375 84.09765625 32.77484375 84.09765625 29.71484375 84.09765625 C28.70847825 81.66261116 27.70957962 79.22494761 26.71484375 76.78515625 C26.42867187 76.09486328 26.1425 75.40457031 25.84765625 74.69335938 C24.62573631 71.68219951 23.71484375 69.37878641 23.71484375 66.09765625 C9.85484375 66.09765625 -4.00515625 66.09765625 -18.28515625 66.09765625 C-18.61515625 68.07765625 -18.94515625 70.05765625 -19.28515625 72.09765625 C-20.08186749 74.24485836 -20.9370375 76.37122836 -21.84765625 78.47265625 C-22.30269531 79.53226563 -22.75773438 80.591875 -23.2265625 81.68359375 C-23.57589844 82.48023438 -23.92523437 83.276875 -24.28515625 84.09765625 C-27.25515625 84.09765625 -30.22515625 84.09765625 -33.28515625 84.09765625 C-32.70993343 78.76125173 -31.42571579 74.20914017 -29.47265625 69.22265625 C-29.20275879 68.5172168 -28.93286133 67.81177734 -28.65478516 67.08496094 C-26.98139665 62.75231163 -25.15914136 58.51487602 -23.21484375 54.296875 C-21.66514008 50.63097935 -20.50513687 46.8380035 -19.27734375 43.0546875 C-18.1253297 39.62132278 -16.79722452 36.29008335 -15.421875 32.94140625 C-13.68510942 28.59650817 -12.08012927 24.2021882 -10.47900391 19.80566406 C-8.98272135 15.7547772 -7.22979637 11.95954718 -5.28515625 8.09765625 C-4.59835683 5.77016931 -3.92754582 3.43778969 -3.28515625 1.09765625 C-2.28515625 0.09765625 -2.28515625 0.09765625 0 0 Z " fill="#F5F5F5" transform="translate(786.28515625,510.90234375)"/>
<path d="M0 0 C2.97 0 5.94 0 9 0 C12.46588288 8.18968102 15.74927072 16.4328494 18.90625 24.74609375 C19.35343384 25.91906509 19.80061768 27.09203644 20.26135254 28.30055237 C21.43778323 31.38724564 22.6126509 34.47452728 23.78668213 37.56213379 C25.43540064 41.89673847 27.08741806 46.23008734 28.73864746 50.56373596 C29.61288855 52.85875664 30.48669976 55.15394114 31.35998535 57.44932556 C31.96586487 59.04146629 31.96586487 59.04146629 32.58398438 60.66577148 C33.17215942 62.21770706 33.17215942 62.21770706 33.7722168 63.80099487 C34.63820619 66.05734152 35.52154623 68.30706628 36.41723633 70.55178833 C36.87573975 71.70782562 37.33424316 72.86386292 37.80664062 74.05493164 C38.22643188 75.09887589 38.64622314 76.14282013 39.07873535 77.21839905 C40 80 40 80 40 84 C37.03 84 34.06 84 31 84 C29.99394407 81.39802798 28.99497475 78.79370638 28 76.1875 C27.71382813 75.44951172 27.42765625 74.71152344 27.1328125 73.95117188 C26.86210937 73.23896484 26.59140625 72.52675781 26.3125 71.79296875 C26.06113281 71.1383667 25.80976563 70.48376465 25.55078125 69.80932617 C25 68 25 68 25 65 C11.47 65 -2.06 65 -16 65 C-16.66 66.98 -17.32 68.96 -18 71 C-18.65043408 72.73533781 -19.31633451 74.46498344 -20 76.1875 C-20.33 77.02667969 -20.66 77.86585938 -21 78.73046875 C-22 81 -22 81 -24 84 C-25.9453125 84.29296875 -25.9453125 84.29296875 -28.125 84.1875 C-29.40375 84.125625 -30.6825 84.06375 -32 84 C-30.62789588 76.17900651 -27.78311585 69.16282346 -24.76708984 61.86816406 C-21.27273285 53.35803685 -18.18483595 44.71304289 -15.16455078 36.02709961 C-13.62015107 31.62930897 -11.90945147 27.38836999 -9.92578125 23.16796875 C-8.78439037 20.49509137 -7.93541677 17.77177157 -7.0625 15 C-5.3039474 9.53517518 -2.95014032 4.91690054 0 0 Z " fill="#F9F9F9" transform="translate(456,511)"/>
<path d="M0 0 C0.33 0.99 0.66 1.98 1 3 C-20.38222637 39.02150998 -77.65764648 62.87012966 -115.74169922 73.43457031 C-121.02075364 74.7563314 -126.37720122 75.63966214 -131.75390625 76.45703125 C-134.87694956 76.81617215 -134.87694956 76.81617215 -137 78 C-138.63707117 78.09663077 -140.27804945 78.13075617 -141.91796875 78.1328125 C-142.91795898 78.13506836 -143.91794922 78.13732422 -144.94824219 78.13964844 C-146.5516748 78.13239746 -146.5516748 78.13239746 -148.1875 78.125 C-149.27579102 78.12016602 -150.36408203 78.11533203 -151.48535156 78.11035156 C-166.66765572 77.9977566 -180.39368822 77.5590621 -194 70 C-193.67 68.68 -193.34 67.36 -193 66 C-185.84105131 64.76095119 -185.84105131 64.76095119 -182 66 C-160.61729649 70.15552495 -137.5327767 67.42880415 -117 61 C-116.10071777 60.73268066 -115.20143555 60.46536133 -114.27490234 60.18994141 C-85.46760397 51.60624119 -56.67271324 38.18463104 -32 21 C-30.66388672 20.09894531 -30.66388672 20.09894531 -29.30078125 19.1796875 C-21.87274271 14.1063258 -14.80802854 8.59031305 -8.1875 2.5 C-5.46103891 0.10950094 -3.72183569 -0.6766974 0 0 Z " fill="#D6A494" transform="translate(721,389)"/>
<path d="M0 0 C2.79935439 1.8618759 5.44607179 3.81413791 8 6 C6.64062915 8.8605891 5.35479531 10.85927699 3 13 C1.35 12.34 -0.3 11.68 -2 11 C-2 10.34 -2 9.68 -2 9 C-11.71530568 4.99958002 -22.24770619 2.59892211 -32.5625 6.25 C-38.52848435 9.2872284 -42.60418412 12.36449366 -46.703125 17.609375 C-47.13109375 18.06828125 -47.5590625 18.5271875 -48 19 C-48.66 19 -49.32 19 -50 19 C-50.309375 20.093125 -50.61875 21.18625 -50.9375 22.3125 C-51.58337897 24.55407994 -52.2623117 26.7869351 -53 29 C-53.84098457 41.79399472 -53.33896319 52.18189392 -44.8125 62.4375 C-38.37900853 69.04940804 -31.9865039 71.51911167 -22.83203125 72.03125 C-15.06959003 71.94559548 -9.11663366 70.51747736 -2.7109375 66.125 C-0.42720721 64.62336912 1.25043016 63.92362306 4 64 C6.3125 65.9375 6.3125 65.9375 8 68 C5.73042436 73.77710162 0.59799752 76.57708404 -4.78515625 79.11328125 C-15.77698809 83.51389117 -27.84601326 82.34619602 -39 79 C-39 78.34 -39 77.68 -39 77 C-40.299375 76.62875 -40.299375 76.62875 -41.625 76.25 C-51.52873528 72.5819499 -56.87321178 64.28842504 -61.22265625 54.9921875 C-65.79822065 43.26586668 -64.02090552 31.90347632 -61 20 C-59.8984375 17.55078125 -59.8984375 17.55078125 -59 16 C-58.34 16 -57.68 16 -57 16 C-56.7525 15.278125 -56.505 14.55625 -56.25 13.8125 C-52.48061931 5.33139345 -44.30049098 0.16918483 -36 -3.4375 C-24.09919454 -7.32003228 -10.78652395 -6.3440498 0 0 Z " fill="#F8F8F8" transform="translate(375,515)"/>
<path d="M0 0 C1.04590805 0.00222061 2.0918161 0.00444122 3.16941833 0.00672913 C4.35056717 0.00680466 5.531716 0.00688019 6.74865723 0.00695801 C8.03404892 0.01211929 9.31944061 0.01728058 10.64378357 0.02259827 C12.60601112 0.02472069 12.60601112 0.02472069 14.60787964 0.02688599 C18.09150591 0.03071042 21.57509071 0.04054005 25.05870056 0.05158997 C28.6111444 0.06180569 32.16359491 0.06638395 35.71604919 0.07142639 C42.69067564 0.0821624 49.66527449 0.09923792 56.63987732 0.12025452 C56.68229455 2.45320227 56.68080669 4.78728019 56.63987732 7.12025452 C56.30987732 7.45025452 55.97987732 7.78025452 55.63987732 8.12025452 C47.71987732 8.12025452 39.79987732 8.12025452 31.63987732 8.12025452 C31.63987732 30.56025452 31.63987732 53.00025452 31.63987732 76.12025452 C39.88987732 76.12025452 48.13987732 76.12025452 56.63987732 76.12025452 C56.63987732 78.43025452 56.63987732 80.74025452 56.63987732 83.12025452 C55.63987732 84.12025452 55.63987732 84.12025452 53.27975464 84.24050903 C52.23384659 84.23828842 51.18793854 84.23606781 50.1103363 84.23377991 C48.92918747 84.23370438 47.74803864 84.23362885 46.53109741 84.23355103 C45.24570572 84.22838974 43.96031403 84.22322845 42.63597107 84.21791077 C40.67374352 84.21578835 40.67374352 84.21578835 38.671875 84.21362305 C35.18824873 84.20979861 31.70466393 84.19996898 28.22105408 84.18891907 C24.66861024 84.17870334 21.11615973 84.17412508 17.56370544 84.16908264 C10.589079 84.15834664 3.61448015 84.14127111 -3.36012268 84.12025452 C-3.36012268 81.48025452 -3.36012268 78.84025452 -3.36012268 76.12025452 C4.88987732 76.12025452 13.13987732 76.12025452 21.63987732 76.12025452 C21.63987732 53.68025452 21.63987732 31.24025452 21.63987732 8.12025452 C13.38987732 8.12025452 5.13987732 8.12025452 -3.36012268 8.12025452 C-3.36012268 0.17120717 -3.36012268 0.17120717 0 0 Z " fill="#F9F9F9" transform="translate(653.3601226806641,510.87974548339844)"/>
<path d="M0 0 C0.495 0.99 0.495 0.99 1 2 C0.67 2.99 0.34 3.98 0 5 C-0.66 5 -1.32 5 -2 5 C-0.88243734 8.86848614 0.02873292 11.28922757 3 14 C2.45472656 14.825 1.90945313 15.65 1.34765625 16.5 C-13.22624281 38.73319832 -25.73723058 62.32733415 -33 88 C-33.19062012 88.66370605 -33.38124023 89.32741211 -33.57763672 90.01123047 C-37.96770024 105.95189012 -38.53521111 124.624813 -30.71484375 139.43359375 C-24.07191504 150.40645371 -14.29927844 155.85665846 -3 161 C-3.33 161.66 -3.66 162.32 -4 163 C-4.99 163 -5.98 163 -7 163 C-7 162.34 -7 161.68 -7 161 C-9.31 161.33 -11.62 161.66 -14 162 C-13.93220946 163.93383406 -13.93220946 163.93383406 -13 166 C-10.48182555 167.55896273 -10.48182555 167.55896273 -7.375 168.6875 C-6.35148438 169.10386719 -5.32796875 169.52023437 -4.2734375 169.94921875 C3.19337484 172.34608333 11.16055575 172.4656339 18.9375 173.0625 C20.09830078 173.15337891 21.25910156 173.24425781 22.45507812 173.33789062 C25.30323641 173.56058613 28.15153793 173.78123047 31 174 C31 174.33 31 174.66 31 175 C8.83601634 175.40490695 -10.16455346 173.4507777 -28 159 C-31.41968557 155.58031443 -34.27066045 151.98634882 -37 148 C-37.51175781 147.27167969 -38.02351563 146.54335938 -38.55078125 145.79296875 C-48.34047576 130.22764327 -46.63626227 107.68379408 -42.90039062 90.46142578 C-35.39460298 58.78625382 -20.13262069 25.76457567 0 0 Z " fill="#936456" transform="translate(542,293)"/>
<path d="M0 0 C2.31 0 4.62 0 7 0 C10.92181137 7.3228843 13.75642686 15.00972247 16.640625 22.78125 C17.1726088 24.20485591 17.70498425 25.62831552 18.23773193 27.05163574 C19.62910385 30.77207247 21.01519571 34.4944542 22.40014648 38.21728516 C23.81822907 42.02626882 25.24136653 45.83336264 26.6640625 49.640625 C29.44762105 57.09192368 32.22559681 64.54528761 35 72 C35.63110827 70.42329294 36.26210936 68.84654297 36.89306641 67.26977539 C37.24446686 66.39172745 37.59586731 65.5136795 37.95791626 64.60902405 C42.16697376 54.07097243 46.22398843 43.50349194 49.93432617 32.77880859 C51.45884103 28.41200412 53.1713222 24.2197955 55.140625 20.0390625 C56.12209651 17.71029827 56.77464683 15.37532666 57.4375 12.9375 C58.82436214 8.19843633 60.38383509 3.51065347 64 0 C67.8125 -0.5 67.8125 -0.5 71 0 C70.16631014 9.17058843 66.60324849 17.71048891 63.1328125 26.16796875 C61.68966671 29.77583322 60.34843692 33.41840482 59 37.0625 C57.43218047 41.29283827 55.85048167 45.47321126 53.9375 49.5625 C51.86688079 54.04740966 50.38773978 58.71369911 48.85961914 63.40234375 C46.42062294 70.85195807 43.6524327 78.06037786 40 85 C38.56510191 85.13536774 37.12652893 85.23217143 35.6875 85.3125 C34.88699219 85.37050781 34.08648438 85.42851563 33.26171875 85.48828125 C31 85 31 85 29.49247742 82.79968262 C28.07389194 80.13861113 26.92714767 77.53462086 25.85864258 74.71679688 C25.46425491 73.6838147 25.06986725 72.65083252 24.66352844 71.58654785 C24.03537483 69.91948792 24.03537483 69.91948792 23.39453125 68.21875 C22.95163254 67.05484741 22.50873383 65.89094482 22.05241394 64.69177246 C20.87334918 61.59073443 19.69841878 58.48819487 18.5255127 55.38482666 C16.90187179 51.09278294 15.26922088 46.80415242 13.6388855 42.51464844 C12.72926023 40.11768621 11.82179339 37.71990372 10.91653442 35.32128906 C8.81606973 29.75764898 6.69602567 24.20460209 4.50537109 18.67578125 C4.12475021 17.7065271 3.74412933 16.73727295 3.35197449 15.73864746 C2.64587642 13.94473877 1.93116863 12.15418535 1.20625305 10.36779785 C0.89802109 9.58062378 0.58978912 8.79344971 0.2722168 7.98242188 C0.00064255 7.30497925 -0.2709317 6.62753662 -0.55073547 5.92956543 C-1.08534843 3.63343336 -0.73290917 2.21460955 0 0 Z " fill="#F6F6F6" transform="translate(536,510)"/>
<path d="M0 0 C6.93 -0.0928125 6.93 -0.0928125 14 -0.1875 C16.16175781 -0.22846802 16.16175781 -0.22846802 18.3671875 -0.27026367 C33.12425106 -0.36578197 33.12425106 -0.36578197 39.375 5.0625 C43.02435721 11.65941495 43.69713597 18.72656011 42 26 C40.11352472 29.9993276 38.7468522 31.61145358 34.81640625 33.65625 C28.2993972 35.95301612 21.31009219 35.31204797 14.5 35.1875 C9.715 35.125625 4.93 35.06375 0 35 C0 23.45 0 11.9 0 0 Z " fill="#262626" transform="translate(879,519)"/>
<path d="M0 0 C5.33096305 4.87997051 8.02081191 9.55164421 8.375 16.8125 C8.2598324 21.96433076 7.0022838 25.81031778 4 30 C-0.2 34 -0.2 34 -3 34 C-2.7834375 32.0509375 -2.7834375 32.0509375 -2.5625 30.0625 C-2.47613281 29.24265625 -2.38976562 28.4228125 -2.30078125 27.578125 C-2.10698375 25.9170036 -1.87778398 24.25944354 -1.60546875 22.609375 C-0.81157833 17.47962153 -0.92133139 14.45876143 -4 10 C-8.36364942 6.04544271 -12.23960416 5.7503234 -18 6 C-38.45568285 9.67985829 -58.84263798 19.38412609 -74.73828125 32.796875 C-77 34 -77 34 -79.79296875 33.203125 C-80.52128906 32.80609375 -81.24960937 32.4090625 -82 32 C-82 32.66 -82 33.32 -82 34 C-84.64 34.66 -87.28 35.32 -90 36 C-90.375 33.3125 -90.375 33.3125 -90 30 C-88.184967 27.98874721 -86.20335164 26.61878896 -84 25 C-83.67 24.34 -83.34 23.68 -83 23 C-83.66 22.67 -84.32 22.34 -85 22 C-75.35049006 15.48658079 -65.51241853 9.99453651 -55 5 C-54.18015625 4.58878906 -53.3603125 4.17757812 -52.515625 3.75390625 C-38.69611294 -2.92206104 -13.68255502 -9.97747082 0 0 Z " fill="#C59282" transform="translate(737,154)"/>
<path d="M0 0 C1.93359375 1.36328125 1.93359375 1.36328125 2.828125 3.8671875 C2.93359375 6.36328125 2.93359375 6.36328125 1.05859375 8.61328125 C0.00671875 9.47953125 0.00671875 9.47953125 -1.06640625 10.36328125 C-1.39640625 10.69328125 -1.72640625 11.02328125 -2.06640625 11.36328125 C-0.74640625 11.36328125 0.57359375 11.36328125 1.93359375 11.36328125 C3.08186225 13.65981825 3.0492055 14.94641292 3.03125 17.49609375 C3.02802734 18.30175781 3.02480469 19.10742188 3.02148438 19.9375 C3.00891602 21.20013672 3.00891602 21.20013672 2.99609375 22.48828125 C2.99158203 23.33777344 2.98707031 24.18726563 2.98242188 25.0625 C2.97062249 27.16279034 2.95268681 29.26304455 2.93359375 31.36328125 C1.61359375 31.36328125 0.29359375 31.36328125 -1.06640625 31.36328125 C-1.39640625 30.37328125 -1.72640625 29.38328125 -2.06640625 28.36328125 C-2.75992188 28.84667969 -3.4534375 29.33007812 -4.16796875 29.828125 C-9.24152388 32.51533143 -14.48227273 32.20227668 -20.06640625 31.36328125 C-24.51395157 29.23027482 -26.58756342 26.19739456 -29.00390625 21.98828125 C-30.66037444 16.33680153 -30.6611217 12.31262633 -28.94140625 6.67578125 C-22.41351813 -4.85682109 -11.12549944 -4.21762303 0 0 Z " fill="#251F1D" transform="translate(812.06640625,640.63671875)"/>
<path d="M0 0 C0.66 0 1.32 0 2 0 C4.28320922 6.08553721 6.56135386 12.17295235 8.8359375 18.26171875 C9.61080466 20.33409838 10.38684302 22.40604049 11.1640625 24.47753906 C12.27910461 27.45003652 13.38996614 30.42406676 14.5 33.3984375 C14.84998047 34.32868744 15.19996094 35.25893738 15.56054688 36.21737671 C15.88087891 37.07811798 16.20121094 37.93885925 16.53125 38.82568359 C16.81548828 39.58513275 17.09972656 40.34458191 17.39257812 41.12704468 C18 43 18 43 18 45 C6.78 45 -4.44 45 -16 45 C-11.47897476 30.30666798 -11.47897476 30.30666798 -8.5625 23.625 C-5.26998951 15.87419696 -2.53623476 8.02946213 0 0 Z " fill="#1A1A1A" transform="translate(459,523)"/>
<path d="M0 0 C0.495 1.485 0.495 1.485 1 3 C1.66 3 2.32 3 3 3 C3 3.99 3 4.98 3 6 C3.66 5.01 4.32 4.02 5 3 C5.99 3 6.98 3 8 3 C8.734375 5.75 8.734375 5.75 9 9 C7.515625 11.0625 7.515625 11.0625 5.25 13 C1.22494169 16.71255378 -2.17655017 20.54790227 -5.5 24.875 C-5.96204834 25.4745752 -6.42409668 26.07415039 -6.90014648 26.69189453 C-7.82248106 27.88923193 -8.74428221 29.08698043 -9.66552734 30.28515625 C-11.66575392 32.85551693 -13.73787937 35.36453469 -15.8125 37.875 C-20.25659948 43.28486668 -24.46423658 48.8039051 -28.484375 54.53515625 C-28.92918213 55.16639404 -29.37398926 55.79763184 -29.83227539 56.44799805 C-30.72185874 57.71290191 -31.60663396 58.98120372 -32.48608398 60.25317383 C-34.5037354 63.12348782 -36.04711387 65.03140925 -39 67 C-39.99 66.67 -40.98 66.34 -42 66 C-42.33 63.69 -42.66 61.38 -43 59 C-42.34 59 -41.68 59 -41 59 C-41 58.071875 -41 57.14375 -41 56.1875 C-40.18379082 50.72433988 -36.60614679 46.90306868 -33.2890625 42.66308594 C-31.8977362 40.86806421 -30.54028136 39.05079552 -29.1875 37.2265625 C-19.78521507 24.55284005 -10.05336872 12.16333499 0 0 Z M7 1 C7.66 1 8.32 1 9 1 C8.67 1.66 8.34 2.32 8 3 C7.67 2.34 7.34 1.68 7 1 Z " fill="#BC8B7C" transform="translate(583,239)"/>
<path d="M0 0 C3.41251507 1.70625754 3.95135681 5.73230379 5.1875 9.1640625 C5.49067139 9.98949554 5.79384277 10.81492859 6.10620117 11.66537476 C6.74831474 13.41777872 7.38696931 15.17145334 8.02246094 16.92626953 C8.98933074 19.59554496 9.96630889 22.2609354 10.9453125 24.92578125 C11.56831142 26.62998799 12.19072567 28.3344086 12.8125 30.0390625 C13.10213623 30.83100006 13.39177246 31.62293762 13.69018555 32.43887329 C13.96386963 33.19590546 14.23755371 33.95293762 14.51953125 34.73291016 C14.75776611 35.38941559 14.99600098 36.04592102 15.24145508 36.72232056 C16.260897 39.78339425 17.11364925 42.89777236 18 46 C6.78 46 -4.44 46 -16 46 C-13.32780573 35.31122291 -9.34410416 25.10322597 -5 15 C-4.2423223 13.19069606 -3.49187076 11.37834251 -2.75 9.5625 C-2.43546875 8.80066406 -2.1209375 8.03882813 -1.796875 7.25390625 C-0.94883471 4.8552825 -0.44139692 2.50272056 0 0 Z " fill="#242424" transform="translate(788,522)"/>
<path d="M0 0 C0.495 0.99 0.495 0.99 1 2 C0.67 2.99 0.34 3.98 0 5 C-0.66 5 -1.32 5 -2 5 C-0.88243734 8.86848614 0.02873292 11.28922757 3 14 C2.45472656 14.825 1.90945313 15.65 1.34765625 16.5 C-7.98663506 30.73892678 -15.84819867 45.3380043 -22.92700195 60.83520508 C-23.41257568 61.87829834 -23.89814941 62.9213916 -24.3984375 63.99609375 C-24.82817871 64.93638428 -25.25791992 65.8766748 -25.70068359 66.84545898 C-27 69 -27 69 -30 70 C-30.66 69.67 -31.32 69.34 -32 69 C-34.15643155 62.13047318 -32.30724939 56.88302679 -29.25 50.6875 C-28.84386475 49.82866211 -28.43772949 48.96982422 -28.01928711 48.08496094 C-20.10323099 31.60804775 -11.28088911 14.46267835 0 0 Z " fill="#9D6F60" transform="translate(542,293)"/>
<path d="M0 0 C16 0 16 0 21 4 C22.49498913 6.98997825 22.11577446 9.70042775 22 13 C21 16 21 16 18 18 C17.01 18 16.02 18 15 18 C15.6496875 19.07121094 16.299375 20.14242187 16.96875 21.24609375 C17.81261525 22.64315956 18.656359 24.04029876 19.5 25.4375 C19.92925781 26.14455078 20.35851562 26.85160156 20.80078125 27.58007812 C24 32.88671875 24 32.88671875 24 34 C22.02 34 20.04 34 18 34 C17.22076172 32.50146484 17.22076172 32.50146484 16.42578125 30.97265625 C15.72225365 29.6687851 15.01777669 28.36542588 14.3125 27.0625 C13.97283203 26.40314453 13.63316406 25.74378906 13.28320312 25.06445312 C12.13704352 22.88974902 12.13704352 22.88974902 10 20 C8.35 19.67 6.7 19.34 5 19 C5 23.95 5 28.9 5 34 C3.35 34 1.7 34 0 34 C0 22.78 0 11.56 0 0 Z " fill="#B68E83" transform="translate(727,638)"/>
<path d="M0 0 C4.15621804 2.74467229 6.83163021 5.09284688 8 10 C8.67285758 16.05571822 7.41592543 19.16077231 4 24 C-0.16461388 26.63671571 -4.21918711 26.53025116 -9 26 C-12.8815994 24.56549588 -13.78441171 23.3865721 -15.8125 19.75 C-17.25031835 15.20952099 -18.24664783 11.52920733 -16.05078125 7.07421875 C-11.96923067 0.85532623 -7.48644526 -0.91938801 0 0 Z " fill="#171413" transform="translate(458,642)"/>
<path d="M0 0 C5.33096305 4.87997051 8.02081191 9.55164421 8.375 16.8125 C8.2598324 21.96433076 7.0022838 25.81031778 4 30 C-0.2 34 -0.2 34 -3 34 C-2.855625 32.700625 -2.71125 31.40125 -2.5625 30.0625 C-2.47613281 29.24265625 -2.38976562 28.4228125 -2.30078125 27.578125 C-2.10698375 25.9170036 -1.87778398 24.25944354 -1.60546875 22.609375 C-0.81157833 17.47962153 -0.92133139 14.45876143 -4 10 C-8.36225202 6.04670911 -12.24055266 5.74468429 -18 6 C-20.59638687 6.48716274 -23.07878278 7.02015481 -25.625 7.6875 C-26.31142578 7.86249023 -26.99785156 8.03748047 -27.70507812 8.21777344 C-34.34184483 9.97348319 -40.66518745 12.35326325 -47 15 C-47.33 14.34 -47.66 13.68 -48 13 C-44.26150244 9.5436532 -39.9862178 8.67323805 -35.1875 7.4375 C-33.6184474 7.01968962 -32.04943641 6.60172298 -30.48046875 6.18359375 C-29.72813965 5.98620605 -28.97581055 5.78881836 -28.20068359 5.58544922 C-25.12101758 4.76616376 -22.06084823 3.88678781 -19 3 C-19 2.34 -19 1.68 -19 1 C-17.68 0.67 -16.36 0.34 -15 0 C-15 -0.99 -15 -1.98 -15 -3 C-15.804375 -2.67 -16.60875 -2.34 -17.4375 -2 C-20.5240409 -1.13360255 -22.22394589 -0.93787413 -25.3125 -1.0625 C-30.30656516 -1.20688624 -34.39860734 0.17249653 -39 2 C-39 2.66 -39 3.32 -39 4 C-47.03571429 5.33928571 -47.03571429 5.33928571 -51 3 C-50.34773437 2.80664062 -49.69546875 2.61328125 -49.0234375 2.4140625 C-43.4816889 0.76913991 -43.4816889 0.76913991 -38 -1.0625 C-26.5776234 -4.63199269 -10.37610561 -7.56637125 0 0 Z " fill="#986A5D" transform="translate(737,154)"/>
<path d="M0 0 C3 1.8125 3 1.8125 4.4375 4.5 C4.623125 5.263125 4.80875 6.02625 5 6.8125 C3.3125 7.5625 3.3125 7.5625 1 7.8125 C0.2575 7.173125 -0.485 6.53375 -1.25 5.875 C-4.49439529 3.44170354 -6.1382368 3.26981564 -10.07421875 3.4921875 C-14.08648492 4.15954212 -16.27090012 5.93255187 -18.8125 9 C-20.36665754 12.68089944 -20.68510647 15.91549651 -20 19.8125 C-18.65695646 23.0975971 -17.28901589 26.16799205 -14 27.8125 C-9.14213271 28.33697771 -5.24012661 28.52114378 -0.9375 26.0625 C1.32837909 23.7718714 1.32837909 23.7718714 2 19.8125 C-1.3 19.8125 -4.6 19.8125 -8 19.8125 C-8 18.4925 -8 17.1725 -8 15.8125 C-3.05 15.8125 1.9 15.8125 7 15.8125 C7 21.4225 7 27.0325 7 32.8125 C5.68 32.8125 4.36 32.8125 3 32.8125 C2.67 31.8225 2.34 30.8325 2 29.8125 C1.30648437 30.29589844 0.61296875 30.77929688 -0.1015625 31.27734375 C-5.17511763 33.96455018 -10.41586648 33.65149543 -16 32.8125 C-20.44754532 30.67949357 -22.52115717 27.64661331 -24.9375 23.4375 C-26.59396819 17.78602028 -26.59471545 13.76184508 -24.875 8.125 C-19.63854122 -1.12607718 -9.8425349 -3.6599342 0 0 Z " fill="#A88073" transform="translate(808,639.1875)"/>
<path d="M0 0 C1.65 0 3.3 0 5 0 C6.89835771 2.0906351 8.34890754 3.97353835 9.875 6.3125 C10.30409668 6.94172363 10.73319336 7.57094727 11.17529297 8.21923828 C12.47132892 10.13307876 13.73986583 12.06236898 15 14 C15.37576172 14.57508301 15.75152344 15.15016602 16.13867188 15.74267578 C18.13149432 18.80595469 20.070398 21.89585765 22 25 C22.33 16.75 22.66 8.5 23 0 C24.65 0 26.3 0 28 0 C28 11.22 28 22.44 28 34 C26.02 34 24.04 34 22 34 C19.99075805 31.67528257 18.54405281 29.66835943 17 27.0625 C16.13812396 25.68483131 15.27614505 24.30722697 14.4140625 22.9296875 C14.00317383 22.25647461 13.59228516 21.58326172 13.16894531 20.88964844 C11.64962204 18.43359954 10.01782139 16.06219443 8.375 13.6875 C6 10.24309392 6 10.24309392 6 8 C5.34 8 4.68 8 4 8 C4 16.58 4 25.16 4 34 C2.68 34 1.36 34 0 34 C0 22.78 0 11.56 0 0 Z " fill="#C3988A" transform="translate(505,638)"/>
<path d="M0 0 C4.73117628 2.60697468 6.34024526 4.57766982 8.0625 9.6875 C8.36328125 12.84375 8.36328125 12.84375 8.375 16.1875 C8.39175781 17.2909375 8.40851563 18.394375 8.42578125 19.53125 C7.87627199 24.30548097 6.06161986 26.81022403 2.5 29.9375 C-3.07516347 33.94018147 -9.27661971 33.48205317 -15.9375 32.6875 C-20.31641383 30.50868874 -23.19294275 27.24895703 -24.9375 22.6875 C-26.27300492 9.79832458 -26.27300492 9.79832458 -23.1875 5 C-16.79615399 -1.5688834 -8.73357929 -3.55674551 0 0 Z M-19.3125 8.4375 C-21.26343414 12.33936829 -21.53306201 14.36967545 -20.9375 18.6875 C-19.63101101 22.36033385 -18.42475524 25.71578492 -15.078125 27.90234375 C-12.72711277 28.76466758 -10.93601208 28.9546131 -8.4375 28.9375 C-7.6846875 28.94265625 -6.931875 28.9478125 -6.15625 28.953125 C-3.63306962 28.65105411 -2.07838679 28.05029138 0.0625 26.6875 C3.45692403 21.87873263 4.82880957 18.70850375 4.0625 12.6875 C2.34009317 8.06419747 0.33610523 5.21281218 -3.9375 2.6875 C-10.55891116 1.84477494 -14.94781679 3.38365628 -19.3125 8.4375 Z " fill="#A67D72" transform="translate(461.9375,639.3125)"/>
<path d="M0 0 C0.33 0.66 0.66 1.32 1 2 C1.99 2.33 2.98 2.66 4 3 C5.1875 5.5625 5.1875 5.5625 6 8 C3.875 8.8125 3.875 8.8125 1 9 C-0.4837601 7.74202948 -1.96500711 6.47943431 -3.39453125 5.16015625 C-6.22552841 3.11439918 -8.6720409 3.51593322 -12 4 C-14.76441969 5.40759341 -14.76441969 5.40759341 -17 7 C-17.66 7 -18.32 7 -19 7 C-20.44363071 12.59406901 -20.57522243 18.29645457 -19.375 23.9375 C-17.35656737 26.96514895 -15.5154344 27.27038154 -12 28 C-7.50555493 28.31539965 -3.98333992 28.22598408 0 26 C0.33 25.01 0.66 24.02 1 23 C2.65 23.33 4.3 23.66 6 24 C5.10703222 27.57187114 4.06280717 28.94835855 1.1875 31.3125 C-4.20888881 34.04456295 -10.14776889 34.08107717 -16 33 C-20.20827651 30.68932057 -22.91026688 27.68000522 -25.5 23.6875 C-26.75625209 16.93514501 -26.85474109 10.75689308 -23.30859375 4.6953125 C-17.7984859 -2.44315558 -8.05113251 -2.68371084 0 0 Z " fill="#8A6154" transform="translate(399,639)"/>
<path d="M0 0 C1.03769531 -0.02578125 2.07539062 -0.0515625 3.14453125 -0.078125 C7.93031923 0.43792916 10.408872 2.345108 13.5 5.9375 C14.056875 6.700625 14.61375 7.46375 15.1875 8.25 C14.8575 8.91 14.5275 9.57 14.1875 10.25 C10.1875 10.25 10.1875 10.25 8.0625 8.3125 C7.44375 7.631875 6.825 6.95125 6.1875 6.25 C3.12320224 4.71785112 0.5709358 5.02061452 -2.8125 5.25 C-6.52865989 6.93916359 -8.65154991 8.81323474 -10.8125 12.25 C-11.56389729 16.78048366 -11.31379595 20.98356812 -9.625 25.25 C-6.51848107 28.67788296 -3.85590954 29.17547075 0.6875 29.5 C3.99756042 29.26356711 6.2258439 28.68595447 9.1875 27.25 C9.1875 26.59 9.1875 25.93 9.1875 25.25 C10.1775 24.92 11.1675 24.59 12.1875 24.25 C13.1775 24.91 14.1675 25.57 15.1875 26.25 C14.02437842 29.86860048 11.83977087 31.72453307 8.515625 33.484375 C2.33541316 35.51679366 -4.42762167 35.25415929 -10.375 32.75 C-14.92010979 28.08834893 -17.02297304 23.67916967 -17.25 17.125 C-17.01320615 12.13705218 -16.01652217 8.41288042 -12.34765625 4.8125 C-8.02039077 1.08830086 -5.62653744 0.08325333 0 0 Z " fill="#D2A99A" transform="translate(583.8125,637.75)"/>
<path d="M0 0 C6.27 0 12.54 0 19 0 C19 1.65 19 3.3 19 5 C14.38 5 9.76 5 5 5 C5 8.3 5 11.6 5 15 C8.96 15 12.92 15 17 15 C17 16.32 17 17.64 17 19 C13.04 19 9.08 19 5 19 C5 22.63 5 26.26 5 30 C9.62 30 14.24 30 19 30 C19 31.32 19 32.64 19 34 C12.73 34 6.46 34 0 34 C0 22.78 0 11.56 0 0 Z " fill="#D2A99C" transform="translate(674,638)"/>
<path d="M0 0 C6.27 0 12.54 0 19 0 C19 1.32 19 2.64 19 4 C14.38 4 9.76 4 5 4 C5 7.63 5 11.26 5 15 C8.96 15 12.92 15 17 15 C17 16.32 17 17.64 17 19 C13.04 19 9.08 19 5 19 C5 22.63 5 26.26 5 30 C9.62 30 14.24 30 19 30 C19 31.32 19 32.64 19 34 C12.73 34 6.46 34 0 34 C0 22.78 0 11.56 0 0 Z " fill="#8E6459" transform="translate(850,638)"/>
<path d="M0 0 C1.051875 0.1546875 1.051875 0.1546875 2.125 0.3125 C2.62 1.7975 2.62 1.7975 3.125 3.3125 C-3.9683265 15.26225335 -18.70436518 25.39485224 -29.875 33.3125 C-29.875 30.3125 -29.875 30.3125 -27.875 27.3125 C-30.27219432 26.63291397 -30.27219432 26.63291397 -32.875 26.3125 C-33.535 26.9725 -34.195 27.6325 -34.875 28.3125 C-36.86321313 28.71014263 -38.86444339 29.05025349 -40.875 29.3125 C-37.6778718 25.74861893 -34.0677003 23.56008522 -29.9375 21.25 C-21.5094039 16.37845922 -14.51369853 10.34177212 -7.2734375 3.8840332 C-3.19987087 0.34781205 -3.19987087 0.34781205 0 0 Z " fill="#AE8174" transform="translate(718.875,388.6875)"/>
<path d="M0 0 C0.33 0.99 0.66 1.98 1 3 C1.66 3 2.32 3 3 3 C3 3.99 3 4.98 3 6 C3.66 5.01 4.32 4.02 5 3 C5.99 3 6.98 3 8 3 C8.73828125 5.74609375 8.73828125 5.74609375 9 9 C7.48046875 11.09765625 7.48046875 11.09765625 5.1875 13.0625 C0.57493353 17.28466115 -3.06651399 21.79693813 -6.72387695 26.83422852 C-7.77317835 28.25539132 -8.88180742 29.63238072 -10 31 C-10.66 31 -11.32 31 -12 31 C-12.66 30.34 -13.32 29.68 -14 29 C-14.99 29.66 -15.98 30.32 -17 31 C-17.3125 28.375 -17.3125 28.375 -17 25 C-14.625 22.0625 -14.625 22.0625 -13.2890625 20.78515625 C-11.75988287 18.89666496 -11.75988287 18.89666496 -11.15625 15.7109375 C-9.80058362 11.35998122 -7.86456075 8.89958672 -4.875 5.5625 C-4.40707031 5.02173828 -3.93914063 4.48097656 -3.45703125 3.92382812 C-2.31493827 2.60692499 -1.1588892 1.30214672 0 0 Z M7 1 C7.66 1 8.32 1 9 1 C8.67 1.66 8.34 2.32 8 3 C7.67 2.34 7.34 1.68 7 1 Z " fill="#D0A090" transform="translate(583,239)"/>
<path d="M0 0 C0.99 0 1.98 0 3 0 C3 0.66 3 1.32 3 2 C3.58007812 2.09023438 4.16015625 2.18046875 4.7578125 2.2734375 C7.56469026 3.18298325 8.80189369 4.53576056 10.875 6.625 C16.53200991 11.87455358 23.04771085 14.83537336 30 18 C29.67 18.66 29.34 19.32 29 20 C28.01 20 27.02 20 26 20 C26 19.34 26 18.68 26 18 C23.69 18.33 21.38 18.66 19 19 C19.06779054 20.93383406 19.06779054 20.93383406 20 23 C22.51817445 24.55896273 22.51817445 24.55896273 25.625 25.6875 C27.16027344 26.31205078 27.16027344 26.31205078 28.7265625 26.94921875 C36.19337484 29.34608333 44.16055575 29.4656339 51.9375 30.0625 C53.67870117 30.19881836 53.67870117 30.19881836 55.45507812 30.33789062 C58.30323641 30.56058613 61.15153793 30.78123047 64 31 C64 31.33 64 31.66 64 32 C40.45224661 32.43018661 21.28927964 29.70412092 2.7109375 14.07421875 C1 12.3125 1 12.3125 -1 9 C-0.3125 5.75 -0.3125 5.75 1 3 C0.67 2.01 0.34 1.02 0 0 Z " fill="#9F7568" transform="translate(509,436)"/>
<path d="M0 0 C0.33 0.66 0.66 1.32 1 2 C0.67 2.99 0.34 3.98 0 5 C-0.66 5 -1.32 5 -2 5 C-0.88243734 8.86848614 0.02873292 11.28922757 3 14 C-1.93555342 21.71043123 -6.87985724 29.41014132 -12 37 C-12.66 36.34 -13.32 35.68 -14 35 C-13.34 35 -12.68 35 -12 35 C-12 34.34 -12 33.68 -12 33 C-12.5775 33.28875 -13.155 33.5775 -13.75 33.875 C-15.83333333 34.91666667 -17.91666667 35.95833333 -20 37 C-18.34660746 24.18156347 -7.94801234 10.12271279 0 0 Z " fill="#A7796C" transform="translate(542,293)"/>
<path d="M0 0 C4.9317655 1.82657981 7.73258751 5.82729287 10.3125 10.25 C12.01183388 17.04733553 11.70503268 23.16891053 8.21484375 29.3046875 C6.46490621 31.74672253 4.52980059 33.40223121 2 35 C1.34 35 0.68 35 0 35 C0.2165625 33.0509375 0.2165625 33.0509375 0.4375 31.0625 C0.52386719 30.24265625 0.61023438 29.4228125 0.69921875 28.578125 C0.89301625 26.9170036 1.12221602 25.25944354 1.39453125 23.609375 C2.42888984 16.92582716 0.74183443 13.61275165 -3 8 C-2.01 7.67 -1.02 7.34 0 7 C0.73323796 4.98491642 0.73323796 4.98491642 1 3 C0.34 2.67 -0.32 2.34 -1 2 C-0.67 1.34 -0.34 0.68 0 0 Z " fill="#926357" transform="translate(734,153)"/>
<path d="M0 0 C0.33 0.66 0.66 1.32 1 2 C1.99 2 2.98 2 4 2 C4 2.99 4 3.98 4 5 C5.62580966 4.88601335 7.25067157 4.75844341 8.875 4.625 C10.23238281 4.52058594 10.23238281 4.52058594 11.6171875 4.4140625 C14.17941903 4.20431868 14.17941903 4.20431868 16 2 C18.125 2.375 18.125 2.375 20 3 C20 3.99 20 4.98 20 6 C17 8 17 8 14 8 C14.6496875 9.07121094 15.299375 10.14242187 15.96875 11.24609375 C16.81261525 12.64315956 17.656359 14.04029876 18.5 15.4375 C18.92925781 16.14455078 19.35851562 16.85160156 19.80078125 17.58007812 C23 22.88671875 23 22.88671875 23 24 C21.02 24 19.04 24 17 24 C16.48050781 23.00097656 15.96101562 22.00195312 15.42578125 20.97265625 C14.72225365 19.6687851 14.01777669 18.36542588 13.3125 17.0625 C12.97283203 16.40314453 12.63316406 15.74378906 12.28320312 15.06445312 C11.13704352 12.88974902 11.13704352 12.88974902 9 10 C7.35 9.67 5.7 9.34 4 9 C4 13.95 4 18.9 4 24 C2.68 24 1.36 24 0 24 C0 16.08 0 8.16 0 0 Z " fill="#B99084" transform="translate(728,648)"/>
<path d="M0 0 C1.65 0.66 3.3 1.32 5 2 C4.33333333 3.33333333 3.66666667 4.66666667 3 6 C2.72841064 6.650896 2.45682129 7.30179199 2.17700195 7.97241211 C0.76277504 10.40866071 -0.54372722 11.26472974 -2.95703125 12.69140625 C-3.74013672 13.16126953 -4.52324219 13.63113281 -5.33007812 14.11523438 C-6.14927734 14.59283203 -6.96847656 15.07042969 -7.8125 15.5625 C-8.62009766 16.04396484 -9.42769531 16.52542969 -10.25976562 17.02148438 C-11.81654014 17.94840908 -13.37647723 18.87004851 -14.93994141 19.78564453 C-16.62466604 20.77874957 -18.28996983 21.80473615 -19.94921875 22.83984375 C-22 24 -22 24 -24 24 C-24 23.34 -24 22.68 -24 22 C-23.195625 21.525625 -22.39125 21.05125 -21.5625 20.5625 C-18.7081924 19.20016328 -18.7081924 19.20016328 -18 16 C-16.66666667 14.66666667 -15.33333333 13.33333333 -14 12 C-13.67 11.01 -13.34 10.02 -13 9 C-13.66 9 -14.32 9 -15 9 C-15 8.34 -15 7.68 -15 7 C-11.29247377 4.24925473 -7.24822397 2.99034712 -2.890625 1.6484375 C-1.01259944 1.15908543 -1.01259944 1.15908543 0 0 Z " fill="#C29282" transform="translate(686,414)"/>
<path d="M0 0 C0.99 1.32 1.98 2.64 3 4 C2.01 4.99 1.02 5.98 0 7 C0.66 7.66 1.32 8.32 2 9 C2.33 9.66 2.66 10.32 3 11 C4.32 10.67 5.64 10.34 7 10 C3.32167983 14.52615993 -0.41086363 18.39424999 -5 22 C-5.33 20.68 -5.66 19.36 -6 18 C-6.99 18 -7.98 18 -9 18 C-9.66 19.32 -10.32 20.64 -11 22 C-11.33 21.34 -11.66 20.68 -12 20 C-11.67 19.34 -11.34 18.68 -11 18 C-11.66 18 -12.32 18 -13 18 C-12.62504965 12.93817024 -9.88211297 10.22582391 -6.5 6.75 C-5.98824219 6.20859375 -5.47648438 5.6671875 -4.94921875 5.109375 C-3.31808715 3.38786408 -1.67702164 1.67702164 0 0 Z M-7 16 C-6.34 16.66 -5.68 17.32 -5 18 C-5 17.34 -5 16.68 -5 16 C-5.66 16 -6.32 16 -7 16 Z " fill="#DFAF9F" transform="translate(597,224)"/>
<path d="M0 0 C1.65 0 3.3 0 5 0 C5 11.22 5 22.44 5 34 C3.02 34 1.04 34 -1 34 C-2.0625 31.625 -2.0625 31.625 -3 29 C-2.67 28.34 -2.34 27.68 -2 27 C-1.34 27 -0.68 27 0 27 C0 18.09 0 9.18 0 0 Z " fill="#C59B8F" transform="translate(528,638)"/>
<path d="M0 0 C0.99 0.33 1.98 0.66 3 1 C1.92692821 4.04037008 0.80758635 6.26032435 -1.125 8.875 C-3.41018001 12.68363336 -3.53799941 14.61914764 -3 19 C-2.02505308 22.46491929 -1.11231809 25.34569524 2.125 27.25 C2.74375 27.4975 3.3625 27.745 4 28 C4.33 28.99 4.66 29.98 5 31 C3.02 31.99 3.02 31.99 1 33 C-0.13199353 32.0919838 -1.25532363 31.17316174 -2.375 30.25 C-3.00148438 29.73953125 -3.62796875 29.2290625 -4.2734375 28.703125 C-8.12760984 24.90127174 -8.31788995 21.4362342 -8.375 16.125 C-8.29066995 10.32429729 -8.05635421 7.16903072 -4 3 C-1.9375 1.0625 -1.9375 1.0625 0 0 Z " fill="#A2796B" transform="translate(445,639)"/>
<path d="M0 0 C4.95 0 9.9 0 15 0 C15 5.61 15 11.22 15 17 C13.68 17 12.36 17 11 17 C10.67 16.01 10.34 15.02 10 14 C8.02 14.99 6.04 15.98 4 17 C3.67 16.01 3.34 15.02 3 14 C2.38125 14.20625 1.7625 14.4125 1.125 14.625 C0.42375 14.74875 -0.2775 14.8725 -1 15 C-1.66 14.34 -2.32 13.68 -3 13 C-2.38511719 12.89042969 -1.77023437 12.78085937 -1.13671875 12.66796875 C-0.32847656 12.50941406 0.47976563 12.35085938 1.3125 12.1875 C2.11300781 12.03667969 2.91351562 11.88585937 3.73828125 11.73046875 C6.31445959 10.89843879 7.37307676 10.14753867 9 8 C9.33 6.68 9.66 5.36 10 4 C6.7 4 3.4 4 0 4 C0 2.68 0 1.36 0 0 Z " fill="#9E7971" transform="translate(800,655)"/>
<path d="M0 0 C-1.3029232 2.906521 -2.70873381 4.80835408 -5 7 C-6.00016187 9.00032373 -6.49396008 10.83125748 -7 13 C-6.34 13 -5.68 13 -5 13 C-4.67 12.34 -4.34 11.68 -4 11 C-2.35 11 -0.7 11 1 11 C1 10.34 1 9.68 1 9 C1.99 8.67 2.98 8.34 4 8 C4.33 8.99 4.66 9.98 5 11 C3.04312041 12.48112446 1.08458563 13.95996347 -0.875 15.4375 C-1.43058594 15.85837891 -1.98617187 16.27925781 -2.55859375 16.71289062 C-6.7734375 19.88671875 -6.7734375 19.88671875 -9 21 C-9.66 20.34 -10.32 19.68 -11 19 C-10.67 18.01 -10.34 17.02 -10 16 C-10.66 16 -11.32 16 -12 16 C-12 14.35 -12 12.7 -12 11 C-13.98 11.33 -15.96 11.66 -18 12 C-13.54283943 7.09712338 -6.86404266 0 0 0 Z " fill="#DCAFA1" transform="translate(654,177)"/>
<path d="M0 0 C0.495 0.99 0.495 0.99 1 2 C-0.33332095 5.99996286 -2.4957827 6.83782337 -6 9 C-6 8.34 -6 7.68 -6 7 C-8.60778373 8.76555157 -11.21056081 10.53834886 -13.8125 12.3125 C-14.91948242 13.06176758 -14.91948242 13.06176758 -16.04882812 13.82617188 C-16.76103516 14.31279297 -17.47324219 14.79941406 -18.20703125 15.30078125 C-18.8616333 15.74591064 -19.51623535 16.19104004 -20.19067383 16.6496582 C-22.00135544 18.00101159 -23.55391564 19.26095287 -25 21 C-25 21.99 -25 22.98 -25 24 C-25.66 24.33 -26.32 24.66 -27 25 C-27.99 24.67 -28.98 24.34 -30 24 C-30.99 24.33 -31.98 24.66 -33 25 C-32.34 26.65 -31.68 28.3 -31 30 C-34.75 32 -34.75 32 -37 32 C-38.485 32.495 -38.485 32.495 -40 33 C-40.33 31.68 -40.66 30.36 -41 29 C-28.46325302 18.39198333 -14.7253376 7.3626688 0 0 Z " fill="#332926" transform="translate(678,175)"/>
<path d="M0 0 C0.99 0 1.98 0 3 0 C3 0.66 3 1.32 3 2 C3.59296875 2.10183594 4.1859375 2.20367187 4.796875 2.30859375 C8.49421526 3.46892926 10.38664023 6.20845661 13 9 C12.01 12.3 11.02 15.6 10 19 C5.3685066 16.19956213 1.94539492 13.60217957 -1 9 C-0.25 5.8125 -0.25 5.8125 1 3 C0.67 2.01 0.34 1.02 0 0 Z " fill="#9D6E5F" transform="translate(509,436)"/>
<path d="M0 0 C1.32 0 2.64 0 4 0 C4 11.22 4 22.44 4 34 C2.68 34 1.36 34 0 34 C0 22.78 0 11.56 0 0 Z " fill="#EDC2B5" transform="translate(633,638)"/>
<path d="M0 0 C3 1.8125 3 1.8125 4.4375 4.5 C4.623125 5.263125 4.80875 6.02625 5 6.8125 C3.3125 7.5625 3.3125 7.5625 1 7.8125 C0.2575 7.173125 -0.485 6.53375 -1.25 5.875 C-4.49575904 3.44068072 -6.13525369 3.28352188 -10.0703125 3.4765625 C-12.83686025 3.95818822 -14.75906371 5.16475273 -17 6.8125 C-17.99 7.3075 -17.99 7.3075 -19 7.8125 C-19.66 7.1525 -20.32 6.4925 -21 5.8125 C-21.99 6.4725 -22.98 7.1325 -24 7.8125 C-22.50521886 4.00760255 -20.30557786 2.15059165 -17 -0.1875 C-11.54559154 -2.00563615 -5.42500783 -2.01728232 0 0 Z " fill="#A87C72" transform="translate(808,639.1875)"/>
<path d="M0 0 C1.010625 -0.00773438 2.02125 -0.01546875 3.0625 -0.0234375 C7.75101769 0.61250506 10.2687859 2.52521064 13.3125 6.0625 C13.869375 6.825625 14.42625 7.58875 15 8.375 C14.67 9.035 14.34 9.695 14 10.375 C10 10.375 10 10.375 7.875 8.4375 C7.25625 7.756875 6.6375 7.07625 6 6.375 C0.31493678 3.53246839 -7.14334688 6.05519085 -13 7.375 C-10.69118539 1.28812513 -6.13311939 -0.04693714 0 0 Z " fill="#E1B6A7" transform="translate(584,637.625)"/>
<path d="M0 0 C1.423125 -0.061875 2.84625 -0.12375 4.3125 -0.1875 C5.51326172 -0.23970703 5.51326172 -0.23970703 6.73828125 -0.29296875 C9 0 9 0 10.7734375 1.3203125 C12.64006931 3.87652804 12.32635853 5.93222981 12 9 C10 11 10 11 7.6171875 11.1953125 C6.71226562 11.17210937 5.80734375 11.14890625 4.875 11.125 C2.461875 11.063125 2.461875 11.063125 0 11 C0 7.37 0 3.74 0 0 Z " fill="#221C19" transform="translate(732,642)"/>
<path d="M0 0 C0.8125 1.625 0.8125 1.625 1 4 C-0.66247014 6.00348966 -2.32932867 8.00334402 -4 10 C-4.42130907 12.75401951 -4.42130907 12.75401951 -4 15 C-3.01 14.34 -2.02 13.68 -1 13 C-0.34 14.32 0.32 15.64 1 17 C-0.61594832 19.04119788 -2.2856382 21.04072937 -4 23 C-4.66 23 -5.32 23 -6 23 C-6 21.35 -6 19.7 -6 18 C-8.12364481 17.77390663 -8.12364481 17.77390663 -9.625 19.5 C-10.07875 19.995 -10.5325 20.49 -11 21 C-11.66 20.67 -12.32 20.34 -13 20 C-12.59839909 14.73902814 -9.72288191 11.6629196 -6.5 7.75 C-5.98824219 7.11320312 -5.47648438 6.47640625 -4.94921875 5.8203125 C-1.32125687 1.32125687 -1.32125687 1.32125687 0 0 Z M-15 22 C-14.34 22 -13.68 22 -13 22 C-13.33 22.66 -13.66 23.32 -14 24 C-14.33 23.34 -14.66 22.68 -15 22 Z " fill="#BF9485" transform="translate(571,254)"/>
<path d="M0 0 C0.33 0.99 0.66 1.98 1 3 C-0.22265625 4.83203125 -0.22265625 4.83203125 -2.0625 6.8125 C-2.70445312 7.50988281 -3.34640625 8.20726562 -4.0078125 8.92578125 C-6.63376643 11.65986269 -9.28642343 14.35260822 -12 17 C-12.99 16.67 -13.98 16.34 -15 16 C-14.67 15.4225 -14.34 14.845 -14 14.25 C-12.72924102 11.80116138 -12.72924102 11.80116138 -13 8 C-10.6875 5.4375 -10.6875 5.4375 -8 3 C-7.505 2.401875 -7.01 1.80375 -6.5 1.1875 C-4.3553429 -0.51035354 -2.65005894 -0.21486964 0 0 Z " fill="#A8786D" transform="translate(721,389)"/>
<path d="M0 0 C0.66 0 1.32 0 2 0 C3.51220703 1.92773438 3.51220703 1.92773438 5.2578125 4.59375 C5.88300781 5.54121094 6.50820313 6.48867188 7.15234375 7.46484375 C7.80332031 8.46644531 8.45429687 9.46804688 9.125 10.5 C9.78371094 11.50160156 10.44242188 12.50320313 11.12109375 13.53515625 C12.75362714 16.01944619 14.37956884 18.50780592 16 21 C15.34 21.33 14.68 21.66 14 22 C13.67 22.99 13.34 23.98 13 25 C9.60475015 20.91459423 6.66633542 16.61710831 3.75 12.1875 C3.06164062 11.14819336 3.06164062 11.14819336 2.359375 10.08789062 C1.23745975 8.39333113 0.11843328 6.69685966 -1 5 C-0.34 4.67 0.32 4.34 1 4 C1 3.34 1 2.68 1 2 C0.34 1.67 -0.32 1.34 -1 1 C-0.67 0.67 -0.34 0.34 0 0 Z " fill="#BB9485" transform="translate(512,643)"/>
<path d="M0 0 C0.33 0.99 0.66 1.98 1 3 C0.030625 3.433125 -0.93875 3.86625 -1.9375 4.3125 C-5.27731765 5.7014861 -5.27731765 5.7014861 -6 9 C-6.99 9 -7.98 9 -9 9 C-9 9.66 -9 10.32 -9 11 C-6.36 11 -3.72 11 -1 11 C-0.67 11.66 -0.34 12.32 0 13 C-4.29 13 -8.58 13 -13 13 C-13 9.37 -13 5.74 -13 2 C-8.71 2 -4.42 2 0 2 C0 1.34 0 0.68 0 0 Z " fill="#2B211C" transform="translate(692,655)"/>
<path d="M0 0 C0 5.19689119 0 5.19689119 -1 8 C-3.4328131 10.16535796 -6.06596315 11.60984131 -9 13 C-8 11 -7 9 -6 7 C-8.39719432 6.32041397 -8.39719432 6.32041397 -11 6 C-11.66 6.66 -12.32 7.32 -13 8 C-14.98821313 8.39764263 -16.98944339 8.73775349 -19 9 C-16.23997886 6.07425011 -13.47906555 3.80903454 -10.0625 1.6875 C-9.22847656 1.15511719 -8.39445313 0.62273437 -7.53515625 0.07421875 C-4.53652691 -1.1963869 -3.065923 -0.93787627 0 0 Z " fill="#B3887A" transform="translate(697,409)"/>
<path d="M0 0 C0.90105469 0.01804687 1.80210937 0.03609375 2.73046875 0.0546875 C3.41753906 0.07789063 4.10460937 0.10109375 4.8125 0.125 C4.8125 1.115 4.8125 2.105 4.8125 3.125 C3.8225 3.455 2.8325 3.785 1.8125 4.125 C0.8225 3.135 -0.1675 2.145 -1.1875 1.125 C-1.455625 1.764375 -1.72375 2.40375 -2 3.0625 C-3.1875 5.125 -3.1875 5.125 -6.1875 6.125 C-6.1875 7.445 -6.1875 8.765 -6.1875 10.125 C-6.8475 10.125 -7.5075 10.125 -8.1875 10.125 C-8.1875 11.445 -8.1875 12.765 -8.1875 14.125 C-7.1975 13.795 -6.2075 13.465 -5.1875 13.125 C-3.92282205 15.65435589 -4.4625661 16.46690903 -5.1875 19.125 C-5.1875 20.115 -5.1875 21.105 -5.1875 22.125 C-10.08066033 17.38968355 -10.08066033 17.38968355 -10.35546875 14.13671875 C-10.42376853 6.00904534 -10.42376853 6.00904534 -8.1875 2.125 C-4.87379 -0.08414 -3.8428979 -0.09981553 0 0 Z " fill="#171111" transform="translate(388.1875,643.875)"/>
<path d="M0 0 C2.475 0.495 2.475 0.495 5 1 C4.08651532 4.65393872 3.06236171 5.95090674 0.0625 8.3125 C-4.70779499 10.82903274 -9.75474191 10.34146346 -15 10 C-14.27734375 8.07421875 -14.27734375 8.07421875 -13 6 C-10.94140625 5.20703125 -10.94140625 5.20703125 -8.5625 4.8125 C-5.90608554 4.34423584 -3.57286691 3.8576223 -1 3 C-0.67 2.01 -0.34 1.02 0 0 Z " fill="#92695D" transform="translate(400,662)"/>
<path d="M0 0 C0.33 0.66 0.66 1.32 1 2 C1.99 2 2.98 2 4 2 C4 9.26 4 16.52 4 24 C2.68 24 1.36 24 0 24 C0 16.08 0 8.16 0 0 Z " fill="#C69B8B" transform="translate(728,648)"/>
<path d="M0 0 C2.125 0.9375 2.125 0.9375 4 2 C2.8165418 5.68186995 0.56993832 7.43240633 -2.78125 9.25 C-7.07070763 10.69995751 -11.53495861 10.29067177 -16 10 C-15.67 8.68 -15.34 7.36 -15 6 C-14.31292969 5.86722656 -13.62585938 5.73445312 -12.91796875 5.59765625 C-11.56638672 5.33275391 -11.56638672 5.33275391 -10.1875 5.0625 C-8.84751953 4.80146484 -8.84751953 4.80146484 -7.48046875 4.53515625 C-4.88602829 4.02258847 -4.88602829 4.02258847 -2 3 C-2 2.34 -2 1.68 -2 1 C-1.34 0.67 -0.68 0.34 0 0 Z " fill="#DBB3A5" transform="translate(595,662)"/>
<path d="M0 0 C-0.589021 0.0501123 -1.17804199 0.10022461 -1.78491211 0.15185547 C-4.50301913 0.38668458 -7.22022028 0.63079109 -9.9375 0.875 C-10.86369141 0.95363281 -11.78988281 1.03226563 -12.74414062 1.11328125 C-25.79953568 2.30429975 -36.88802934 5.69984682 -48.49609375 11.79296875 C-51 13 -51 13 -53 13 C-52.67 12.01 -52.34 11.02 -52 10 C-50.34795544 9.29788106 -48.68076231 8.63028587 -47 8 C-46.67 7.34 -46.34 6.68 -46 6 C-44.00565163 5.63436947 -42.0039307 5.30882494 -40 5 C-37.4003298 4.21955507 -34.82656821 3.41129175 -32.25 2.5625 C-7.82925859 -5.21950573 -7.82925859 -5.21950573 0 0 Z " fill="#322620" transform="translate(727,150)"/>
<path d="M0 0 C1.98 0.66 3.96 1.32 6 2 C3.33374057 4.12766675 0.85497904 5.63559547 -2.30859375 6.90234375 C-3.13238525 7.23371338 -3.95617676 7.56508301 -4.80493164 7.90649414 C-5.6736792 8.24672607 -6.54242676 8.58695801 -7.4375 8.9375 C-8.32751709 9.28868896 -9.21753418 9.63987793 -10.13452148 10.00170898 C-29.43067171 17.52310943 -29.43067171 17.52310943 -34 16 C-27.01705838 12.81564931 -20.12215956 9.68008303 -12.625 7.9375 C-8.9848772 7.32323444 -8.9848772 7.32323444 -7 5 C-3.875 4.875 -3.875 4.875 -1 5 C-0.67 3.35 -0.34 1.7 0 0 Z " fill="#E4BAAD" transform="translate(640,444)"/>
<path d="M0 0 C0.99 0.33 1.98 0.66 3 1 C3 1.66 3 2.32 3 3 C7.29 3 11.58 3 16 3 C16 4.32 16 5.64 16 7 C8.08 7.495 8.08 7.495 0 8 C0 5.36 0 2.72 0 0 Z " fill="#D9AEA1" transform="translate(675,650)"/>
<path d="M0 0 C0.99 0 1.98 0 3 0 C5.02558881 3.34939881 5.21738987 5.86962551 5.125 9.75 C5.10695313 10.73484375 5.08890625 11.7196875 5.0703125 12.734375 C5.03550781 13.85585938 5.03550781 13.85585938 5 15 C4.34 15 3.68 15 3 15 C2.67 16.65 2.34 18.3 2 20 C1.01 19.01 0.02 18.02 -1 17 C-0.505 15.515 -0.505 15.515 0 14 C0.06970052 11.60509014 0.08448003 9.20832309 0.0625 6.8125 C0.05347656 5.54019531 0.04445313 4.26789062 0.03515625 2.95703125 C0.02355469 1.98121094 0.01195312 1.00539063 0 0 Z " fill="#B3887A" transform="translate(465,645)"/>
<path d="M0 0 C0.99 0 1.98 0 3 0 C3.33 1.32 3.66 2.64 4 4 C3.34 4 2.68 4 2 4 C-0.95047835 8.61012242 -2.5497272 11.36529617 -2 17 C-3.65 17.66 -5.3 18.32 -7 19 C-7 18.01 -7 17.02 -7 16 C-7.598125 16.350625 -8.19625 16.70125 -8.8125 17.0625 C-11 18 -11 18 -14 17 C-13.49210938 16.57589844 -12.98421875 16.15179688 -12.4609375 15.71484375 C-5.61268022 9.93476774 -5.61268022 9.93476774 0 3 C0 2.01 0 1.02 0 0 Z " fill="#2D2521" transform="translate(721,389)"/>
<path d="M0 0 C0.33 0 0.66 0 1 0 C1.01981934 0.9379541 1.03963867 1.8759082 1.06005859 2.84228516 C1.1384386 6.34253701 1.22514081 9.84238164 1.31738281 13.34228516 C1.35552112 14.853273 1.39039972 16.36434696 1.421875 17.87548828 C1.46785705 20.05532478 1.52579325 22.2345762 1.5859375 24.4140625 C1.6173584 25.7232666 1.6487793 27.0324707 1.68115234 28.38134766 C1.85084538 32.00671883 1.85084538 32.00671883 3.15087891 35.28662109 C3.43108887 36.18203613 3.71129883 37.07745117 4 38 C3.34 38.99 2.68 39.98 2 41 C-1.70657231 28.07112279 -2.93079614 13.22822768 0 0 Z " fill="#7D594F" transform="translate(498,391)"/>
<path d="M0 0 C0.33 0.66 0.66 1.32 1 2 C0.67 2.99 0.34 3.98 0 5 C-0.66 5 -1.32 5 -2 5 C-0.90931332 8.77545388 -0.0916909 11.47043472 3 14 C1.515 16.475 1.515 16.475 0 19 C-1.875 18.75 -1.875 18.75 -4 18 C-5.72101535 15.41847698 -6 14.15081975 -6 11 C-5.34 10.67 -4.68 10.34 -4 10 C-3.31060191 7.67328146 -2.64533078 5.33932406 -2 3 C-1.34 2.01 -0.68 1.02 0 0 Z " fill="#AF8172" transform="translate(542,293)"/>
<path d="M0 0 C0.66 0 1.32 0 2 0 C2.33 1.65 2.66 3.3 3 5 C3.7425 5.103125 4.485 5.20625 5.25 5.3125 C8.35058616 6.08764654 9.74245515 6.74245515 12 9 C13.8125 12.5 13.8125 12.5 15 16 C14.67 16.99 14.34 17.98 14 19 C13.69707031 18.38511719 13.39414062 17.77023437 13.08203125 17.13671875 C9.93393395 11.06331257 7.61999309 8.20666436 1 6 C-1.06145107 5.931009 -3.12501401 5.91532273 -5.1875 5.9375 C-6.27417969 5.94652344 -7.36085938 5.95554687 -8.48046875 5.96484375 C-9.31191406 5.97644531 -10.14335937 5.98804688 -11 6 C-11 5.01 -11 4.02 -11 3 C-7.7 3 -4.4 3 -1 3 C-0.67 2.01 -0.34 1.02 0 0 Z " fill="#2A1D1A" transform="translate(457,633)"/>
<path d="M0 0 C-1.175625 0.433125 -1.175625 0.433125 -2.375 0.875 C-5.09671632 1.84912254 -5.09671632 1.84912254 -7 4 C-7.66 4 -8.32 4 -9 4 C-9.556875 4.474375 -10.11375 4.94875 -10.6875 5.4375 C-13.72039705 7.48675477 -16.40167889 7.60018654 -20 8 C-20.99 8.495 -20.99 8.495 -22 9 C-22.66 8.34 -23.32 7.68 -24 7 C-23 5 -23 5 -20.26953125 4 C-19.12871094 3.67 -17.98789062 3.34 -16.8125 3 C-13.42041439 2.00757267 -10.05857097 1.02052427 -6.72265625 -0.1484375 C-3.90848232 -1.02862389 -2.70648358 -1.04095522 0 0 Z " fill="#E1B7AA" transform="translate(629,444)"/>
<path d="M0 0 C0.99 0.33 1.98 0.66 3 1 C2.3125 3.4375 2.3125 3.4375 1 6 C-3.0683654 7.55555148 -7.69503828 7.07296545 -12 7 C-12.33 9.64 -12.66 12.28 -13 15 C-13.33 15 -13.66 15 -14 15 C-14 11.37 -14 7.74 -14 4 C-9.38 4 -4.76 4 0 4 C0 2.68 0 1.36 0 0 Z " fill="#3A2823" transform="translate(869,638)"/>
<path d="M0 0 C0.33 0.66 0.66 1.32 1 2 C1.99 2 2.98 2 4 2 C3.5359375 3.1446875 3.5359375 3.1446875 3.0625 4.3125 C0.40504082 11.03430852 0.12220733 17.95827749 2 25 C1.01 24.67 0.02 24.34 -1 24 C-1.89316269 18.06390334 -1.97040422 12.93024803 -1 7 C-1.66 6.67 -2.32 6.34 -3 6 C-2.01 4.02 -1.02 2.04 0 0 Z " fill="#1B1010" transform="translate(373,640)"/>
<path d="M0 0 C0.33 0.99 0.66 1.98 1 3 C-1.28012284 6.15193452 -3.3980461 8.52152383 -6.4375 10.9375 C-9.74927582 13.60307566 -12.31750227 16.71831893 -15 20 C-15.99 19.67 -16.98 19.34 -18 19 C-17.43152344 18.443125 -16.86304688 17.88625 -16.27734375 17.3125 C-11.80504888 12.89246901 -7.49556157 8.40969971 -3.41015625 3.62890625 C-2.32370902 2.37392427 -1.17374345 1.17374345 0 0 Z " fill="#372924" transform="translate(600,238)"/>
<path d="M0 0 C2.97 0.495 2.97 0.495 6 1 C6.25 7.625 6.25 7.625 4 11 C2.68 11 1.36 11 0 11 C0 7.37 0 3.74 0 0 Z " fill="#1A1617" transform="translate(561,651)"/>
<path d="M0 0 C0.66 0.99 1.32 1.98 2 3 C0.04312041 4.48112446 -1.91541437 5.95996347 -3.875 7.4375 C-4.70837891 8.06881836 -4.70837891 8.06881836 -5.55859375 8.71289062 C-9.7734375 11.88671875 -9.7734375 11.88671875 -12 13 C-12.66 12.34 -13.32 11.68 -14 11 C-13.34 11 -12.68 11 -12 11 C-12 10.34 -12 9.68 -12 9 C-11.34 9 -10.68 9 -10 9 C-10 8.34 -10 7.68 -10 7 C-9.34 7 -8.68 7 -8 7 C-7.67 5.68 -7.34 4.36 -7 3 C-5.35 3 -3.7 3 -2 3 C-2 2.34 -2 1.68 -2 1 C-1.34 0.67 -0.68 0.34 0 0 Z " fill="#D0A597" transform="translate(657,185)"/>
<path d="M0 0 C-1.875 5.75 -1.875 5.75 -3 8 C-4.85625 7.9690625 -4.85625 7.9690625 -6.75 7.9375 C-9.6640825 7.93233319 -12.20953327 8.06984442 -15 9 C-12.17265809 6.68672026 -9.30405012 4.43279531 -6.375 2.25 C-5.52035156 1.60804688 -5.52035156 1.60804688 -4.6484375 0.953125 C-3 0 -3 0 0 0 Z " fill="#C6A092" transform="translate(667,168)"/>
<path d="M0 0 C1.875 0.75 1.875 0.75 2.875 2.75 C0.565 2.75 -1.745 2.75 -4.125 2.75 C-4.125 13.97 -4.125 25.19 -4.125 36.75 C-4.455 36.75 -4.785 36.75 -5.125 36.75 C-5.19904737 31.80211686 -5.25355246 26.85455476 -5.28979492 21.90625 C-5.30490003 20.2222736 -5.32538546 18.53833665 -5.35131836 16.85449219 C-5.38762721 14.43675007 -5.40470847 12.01952708 -5.41796875 9.6015625 C-5.43345261 8.8463028 -5.44893646 8.09104309 -5.46488953 7.31289673 C-5.46557617 5.18994141 -5.46557617 5.18994141 -5.125 1.75 C-2.125 -0.25 -2.125 -0.25 0 0 Z " fill="#1D130E" transform="translate(508.125,635.25)"/>
<path d="M0 0 C0.33 0.66 0.66 1.32 1 2 C1.33 1.34 1.66 0.68 2 0 C2.99 0.33 3.98 0.66 5 1 C5 1.99 5 2.98 5 4 C3.02 4 1.04 4 -1 4 C-1 14.56 -1 25.12 -1 36 C-1.33 36 -1.66 36 -2 36 C-2.04944066 31.35524041 -2.08573863 26.71063404 -2.10986328 22.06567383 C-2.11992041 20.48556856 -2.13356785 18.9054819 -2.15087891 17.32543945 C-2.17514022 15.0541525 -2.18648582 12.78311164 -2.1953125 10.51171875 C-2.20563507 9.80536789 -2.21595764 9.09901703 -2.22659302 8.3712616 C-2.22743775 4.67802208 -2.10720523 3.16080784 0 0 Z " fill="#1F1812" transform="translate(633,634)"/>
<path d="M0 0 C0.33 0.66 0.66 1.32 1 2 C-2.22860855 5.36313391 -5.71542933 8.33622963 -9.29296875 11.31640625 C-11.24888099 12.99100058 -11.24888099 12.99100058 -12 16 C-14.31 16.33 -16.62 16.66 -19 17 C-15.36034072 13.31324716 -11.6302352 9.75155689 -7.8125 6.25 C-7.27947266 5.75628906 -6.74644531 5.26257813 -6.19726562 4.75390625 C-2.23954417 1.11977209 -2.23954417 1.11977209 0 0 Z " fill="#352725" transform="translate(636,205)"/>
<path d="M0 0 C0.7425 0.2475 1.485 0.495 2.25 0.75 C0.14440798 4.82915022 -1.83662363 6.79642613 -5.8125 9.0625 C-6.69035156 9.57425781 -7.56820312 10.08601563 -8.47265625 10.61328125 C-10.75 11.75 -10.75 11.75 -12.75 11.75 C-12.75 11.09 -12.75 10.43 -12.75 9.75 C-11.945625 9.275625 -11.14125 8.80125 -10.3125 8.3125 C-7.4581924 6.95016328 -7.4581924 6.95016328 -6.75 3.75 C-3.58018868 -0.3254717 -3.58018868 -0.3254717 0 0 Z " fill="#C6998B" transform="translate(674.75,426.25)"/>
<path d="M0 0 C1.98 0 3.96 0 6 0 C5.67 1.65 5.34 3.3 5 5 C5.99 5 6.98 5 8 5 C7.67 5.99 7.34 6.98 7 8 C6.34 7.67 5.68 7.34 5 7 C5 7.66 5 8.32 5 9 C4.01 9.33 3.02 9.66 2 10 C2 9.34 2 8.68 2 8 C1.34 8 0.68 8 0 8 C0 5.33333333 0 2.66666667 0 0 Z " fill="#E6B19E" transform="translate(642,185)"/>
<path d="M0 0 C0.33 0.66 0.66 1.32 1 2 C1.99 2 2.98 2 4 2 C4 3.98 4 5.96 4 8 C3.34 7.01 2.68 6.02 2 5 C0.02 5.99 -1.96 6.98 -4 8 C-4.33 7.01 -4.66 6.02 -5 5 C-5.928125 5.309375 -5.928125 5.309375 -6.875 5.625 C-7.57625 5.74875 -8.2775 5.8725 -9 6 C-9.66 5.34 -10.32 4.68 -11 4 C-10.37351562 3.87882813 -9.74703125 3.75765625 -9.1015625 3.6328125 C-8.28429687 3.46523438 -7.46703125 3.29765625 -6.625 3.125 C-5.81289063 2.96257813 -5.00078125 2.80015625 -4.1640625 2.6328125 C-1.81326077 2.13341068 -1.81326077 2.13341068 0 0 Z " fill="#9D766B" transform="translate(808,664)"/>
<path d="M0 0 C0.99 0.33 1.98 0.66 3 1 C1.6302836 4.99500618 -0.25722422 7.80009492 -3 11 C-3 10.01 -3 9.02 -3 8 C-3.99 7.67 -4.98 7.34 -6 7 C-4.61990379 3.66476748 -3.15049348 1.81392049 0 0 Z " fill="#A0796F" transform="translate(445,639)"/>
<path d="M0 0 C0 1.65 0 3.3 0 5 C-4.62 5 -9.24 5 -14 5 C-14 4.67 -14 4.34 -14 4 C-12.35 4 -10.7 4 -9 4 C-9 3.01 -9 2.02 -9 1 C-5.92677456 0.08941469 -3.19902639 -0.08886184 0 0 Z " fill="#B69287" transform="translate(693,638)"/>
<path d="M0 0 C0.66 0.66 1.32 1.32 2 2 C-1.3 4.31 -4.6 6.62 -8 9 C-8.66 8.67 -9.32 8.34 -10 8 C-10 6.02 -10 4.04 -10 2 C-8.3603125 2.061875 -8.3603125 2.061875 -6.6875 2.125 C-2.91107771 2.32074666 -2.91107771 2.32074666 0 0 Z " fill="#332A26" transform="translate(650,175)"/>
<path d="M0 0 C0.66 0.33 1.32 0.66 2 1 C1.45660208 5.56454251 0.20536179 8.9728176 -2 13 C-2.66 13 -3.32 13 -4 13 C-4.49230769 5.73846154 -4.49230769 5.73846154 -2 2 C-1.34 1.34 -0.68 0.68 0 0 Z " fill="#AE8178" transform="translate(787,644)"/>
<path d="M0 0 C-2.625 4.875 -2.625 4.875 -6 6 C-6.66 6 -7.32 6 -8 6 C-8.99 6.495 -8.99 6.495 -10 7 C-10.33 5.35 -10.66 3.7 -11 2 C-7.17010894 0.19769832 -4.21878192 -0.19622241 0 0 Z " fill="#E1B1A1" transform="translate(648,436)"/>
<path d="M0 0 C-3.1038865 1.14659327 -6.20815706 2.29214315 -9.3125 3.4375 C-10.19357422 3.76298828 -11.07464844 4.08847656 -11.98242188 4.42382812 C-12.82998047 4.73642578 -13.67753906 5.04902344 -14.55078125 5.37109375 C-15.33106689 5.65911865 -16.11135254 5.94714355 -16.9152832 6.24389648 C-18.60097925 6.85527963 -20.29887553 7.43295851 -22 8 C-22.33 7.34 -22.66 6.68 -23 6 C-19.56284279 2.94864615 -15.86019699 1.86756505 -11.5 0.75 C-10.83613281 0.564375 -10.17226563 0.37875 -9.48828125 0.1875 C-5.9120657 -0.75473643 -3.51917678 -1.07197756 0 0 Z " fill="#A37E71" transform="translate(712,161)"/>
<path d="M0 0 C1.43655854 -0.08131463 2.8744483 -0.13933559 4.3125 -0.1875 C5.51326172 -0.23970703 5.51326172 -0.23970703 6.73828125 -0.29296875 C9.47851584 0.06198392 10.29171079 0.89366282 12 3 C11 4 11 4 8.27734375 4.09765625 C6.62412109 4.08025391 6.62412109 4.08025391 4.9375 4.0625 C3.83277344 4.05347656 2.72804688 4.04445313 1.58984375 4.03515625 C0.30787109 4.01775391 0.30787109 4.01775391 -1 4 C-0.67 2.68 -0.34 1.36 0 0 Z " fill="#AB8375" transform="translate(449,668)"/>
<path d="M0 0 C2.05078125 0.03255208 4.1015625 0.06510417 6.15234375 0.09765625 C3.53293158 1.84393103 2.11409498 2.48488013 -0.84765625 3.09765625 C-0.84765625 3.75765625 -0.84765625 4.41765625 -0.84765625 5.09765625 C-8.88337054 6.43694196 -8.88337054 6.43694196 -12.84765625 4.09765625 C-12.13738281 3.89269531 -11.42710937 3.68773437 -10.6953125 3.4765625 C-9.77621094 3.20714844 -8.85710938 2.93773437 -7.91015625 2.66015625 C-6.53537109 2.25990234 -6.53537109 2.25990234 -5.1328125 1.8515625 C-2.90734384 1.11734805 -2.24814441 0.1188237 0 0 Z " fill="#A97E75" transform="translate(698.84765625,152.90234375)"/>
<path d="M0 0 C0.33 0 0.66 0 1 0 C1 2.64 1 5.28 1 8 C1.66 8 2.32 8 3 8 C3 8.99 3 9.98 3 11 C3.99 10.01 4.98 9.02 6 8 C6 9.65 6 11.3 6 13 C5.34 13 4.68 13 4 13 C3.67 13.99 3.34 14.98 3 16 C0.01967557 10.87756738 -1.62232333 7.09876859 -1 1 C-0.67 0.67 -0.34 0.34 0 0 Z " fill="#291A18" transform="translate(442,650)"/>
<path d="M0 0 C0.99 0.33 1.98 0.66 3 1 C1.39801112 2.46072532 -0.20667116 3.91849716 -1.8125 5.375 C-2.70582031 6.18710938 -3.59914063 6.99921875 -4.51953125 7.8359375 C-7 10 -7 10 -10 12 C-10.33 11.34 -10.66 10.68 -11 10 C-10.34 10 -9.68 10 -9 10 C-9 7.69 -9 5.38 -9 3 C-7.88625 2.87625 -6.7725 2.7525 -5.625 2.625 C-1.96896323 2.3534187 -1.96896323 2.3534187 0 0 Z " fill="#342A24" transform="translate(620,199)"/>
<path d="M0 0 C0.72018311 0.15847412 1.44036621 0.31694824 2.18237305 0.48022461 C4.85282412 0.97285006 7.37204546 1.20002649 10.08203125 1.31640625 C11.01337891 1.35830078 11.94472656 1.40019531 12.90429688 1.44335938 C13.86400391 1.48267578 14.82371094 1.52199219 15.8125 1.5625 C16.79154297 1.60568359 17.77058594 1.64886719 18.77929688 1.69335938 C21.18607027 1.7990226 23.59293983 1.90112327 26 2 C26 2.33 26 2.66 26 3 C25.02417969 3.06058594 24.04835938 3.12117188 23.04296875 3.18359375 C21.13451172 3.30927734 21.13451172 3.30927734 19.1875 3.4375 C17.92292969 3.51871094 16.65835938 3.59992188 15.35546875 3.68359375 C11.59058921 4.03860567 9.6960073 4.3039927 7 7 C6.5875 6.38125 6.175 5.7625 5.75 5.125 C3.94426121 2.93231719 2.5909466 2.07211583 0 1 C0 0.67 0 0.34 0 0 Z " fill="#9C776B" transform="translate(540,455)"/>
<path d="M0 0 C0 0.33 0 0.66 0 1 C-0.60585938 1.15855469 -1.21171875 1.31710938 -1.8359375 1.48046875 C-7.59683943 3.08465836 -12.69888912 5.1850054 -17.96875 8.01171875 C-20 9 -20 9 -22 9 C-21.67 8.01 -21.34 7.02 -21 6 C-19.34795544 5.29788106 -17.68076231 4.63028587 -16 4 C-15.67 3.34 -15.34 2.68 -15 2 C-13.0085944 1.61866701 -11.00720923 1.28674418 -9 1 C-6.04335481 -0.4783226 -3.25770263 -0.06032783 0 0 Z " fill="#3A2A25" transform="translate(696,154)"/>
<path d="M0 0 C-3.18483911 2.63886669 -6.2898821 5.14494105 -10 7 C-10.99 6.67 -11.98 6.34 -13 6 C-12 3 -12 3 -10.0390625 1.796875 C-9.24242187 1.45140625 -8.44578125 1.1059375 -7.625 0.75 C-6.83351563 0.39421875 -6.04203125 0.0384375 -5.2265625 -0.328125 C-3 -1 -3 -1 0 0 Z " fill="#352B26" transform="translate(701,166)"/>
<path d="M0 0 C2.625 1.3125 2.625 1.3125 5 3 C5 3.66 5 4.32 5 5 C3.37373596 6.38232443 1.7074998 7.71937515 0 9 C-0.66 8.67 -1.32 8.34 -2 8 C-2 5.69 -2 3.38 -2 1 C-1.34 0.67 -0.68 0.34 0 0 Z " fill="#161110" transform="translate(397,657)"/>
<path d="M0 0 C4.8 2.46153846 4.8 2.46153846 5.8125 5.1875 C5.874375 5.785625 5.93625 6.38375 6 7 C4.3125 7.8125 4.3125 7.8125 2 8 C-0.75 5.5625 -0.75 5.5625 -3 3 C-2.01 3 -1.02 3 0 3 C0 2.01 0 1.02 0 0 Z " fill="#9A7369" transform="translate(807,639)"/>
<path d="M0 0 C0.66 0.99 1.32 1.98 2 3 C1.01 3.33 0.02 3.66 -1 4 C-1.34342449 5.33076989 -1.67619874 6.66431979 -2 8 C-2.99 8.66 -3.98 9.32 -5 10 C-5.515625 10.86625 -6.03125 11.7325 -6.5625 12.625 C-7.036875 13.40875 -7.51125 14.1925 -8 15 C-8.66 15 -9.32 15 -10 15 C-8.59601721 10.89889238 -6.62912962 8.01910841 -3.875 4.6875 C-3.15054688 3.80449219 -2.42609375 2.92148437 -1.6796875 2.01171875 C-1.12539063 1.34785156 -0.57109375 0.68398438 0 0 Z " fill="#AC877B" transform="translate(557,272)"/>
<path d="M0 0 C0.66 0 1.32 0 2 0 C-0.16163513 6.93998648 -2.8936214 13.43117569 -6 20 C-8.17041387 13.48875839 -2.76266701 5.92602618 0 0 Z " fill="#2C1D19" transform="translate(514,337)"/>
<path d="M0 0 C0.99 0.99 1.98 1.98 3 3 C2.21654285 4.17219543 1.42297164 5.33763668 0.625 6.5 C0.18414063 7.1496875 -0.25671875 7.799375 -0.7109375 8.46875 C-1.13632812 8.9740625 -1.56171875 9.479375 -2 10 C-2.66 10 -3.32 10 -4 10 C-4.25 6.6875 -4.25 6.6875 -4 3 C-2 1.0625 -2 1.0625 0 0 Z " fill="#C89889" transform="translate(569,267)"/>
<path d="M0 0 C0.99 1.32 1.98 2.64 3 4 C1.1875 5.5625 1.1875 5.5625 -1 7 C-1.99 6.67 -2.98 6.34 -4 6 C-4.66 7.32 -5.32 8.64 -6 10 C-6.99 9.67 -7.98 9.34 -9 9 C-6.03 6.03 -3.06 3.06 0 0 Z " fill="#D1A89A" transform="translate(597,224)"/>
<path d="M0 0 C1.65 0.33 3.3 0.66 5 1 C3.25 5.875 3.25 5.875 1 7 C1 6.34 1 5.68 1 5 C-0.65 5.33 -2.3 5.66 -4 6 C-3.67 5.01 -3.34 4.02 -3 3 C-2.34 3 -1.68 3 -1 3 C-0.67 2.01 -0.34 1.02 0 0 Z " fill="#836256" transform="translate(400,662)"/>
<path d="M0 0 C-1.95405518 1.50587739 -3.91281284 3.00478644 -5.875 4.5 C-6.43058594 4.92925781 -6.98617187 5.35851562 -7.55859375 5.80078125 C-11.7734375 9 -11.7734375 9 -14 9 C-14 8.01 -14 7.02 -14 6 C-11.69921875 4.140625 -11.69921875 4.140625 -8.6875 2.25 C-7.70136719 1.61578125 -6.71523438 0.9815625 -5.69921875 0.328125 C-3 -1 -3 -1 0 0 Z " fill="#362621" transform="translate(703,401)"/>
<path d="M0 0 C1.875 0.25 1.875 0.25 4 1 C5.25 3.0625 5.25 3.0625 6 5 C5.01 5 4.02 5 3 5 C2.34 6.32 1.68 7.64 1 9 C0.67 8.34 0.34 7.68 0 7 C0.33 6.34 0.66 5.68 1 5 C0.34 5 -0.32 5 -1 5 C-0.67 3.35 -0.34 1.7 0 0 Z M5 2 C7 3 7 3 7 3 Z " fill="#DCA997" transform="translate(585,237)"/>
<path d="M0 0 C1.32 0.33 2.64 0.66 4 1 C4 1.66 4 2.32 4 3 C6.97 3.33 9.94 3.66 13 4 C13 4.33 13 4.66 13 5 C12.21496094 4.98839844 11.42992187 4.97679687 10.62109375 4.96484375 C4.96280225 4.91624493 -0.42878878 4.98705251 -6 6 C-6.33 5.34 -6.66 4.68 -7 4 C-4.69 3.34 -2.38 2.68 0 2 C0 1.34 0 0.68 0 0 Z " fill="#9B7065" transform="translate(718,155)"/>
<path d="M0 0 C2.64 0 5.28 0 8 0 C8.33 1.32 8.66 2.64 9 4 C5.7 4 2.4 4 -1 4 C-0.67 2.68 -0.34 1.36 0 0 Z " fill="#E2BAA9" transform="translate(580,668)"/>
<path d="M0 0 C3.37462715 0.54723683 5.08235 1.0549 8 3 C7.67 3.99 7.34 4.98 7 6 C3.62537285 5.45276317 1.91765 4.9451 -1 3 C-0.67 2.01 -0.34 1.02 0 0 Z " fill="#BB9086" transform="translate(739,638)"/>
<path d="M0 0 C-0.33 0.99 -0.66 1.98 -1 3 C-0.34 3.66 0.32 4.32 1 5 C-2.3 5.66 -5.6 6.32 -9 7 C-6.98222181 2.96444362 -4.85744506 0 0 0 Z " fill="#D5AEA1" transform="translate(580,638)"/>
<path d="M0 0 C1.34262065 0.29369827 2.67696283 0.6278958 4 1 C4.99 0.67 5.98 0.34 7 0 C6.67 1.65 6.34 3.3 6 5 C3.69 5.66 1.38 6.32 -1 7 C-1.66 5.35 -2.32 3.7 -3 2 C-2.01 1.34 -1.02 0.68 0 0 Z " fill="#2D2624" transform="translate(715,384)"/>
<path d="M0 0 C2.8453918 4.2680877 2.63487857 7.9874122 2 13 C0.92002977 15.92531066 -0.39986491 18.29977204 -2 21 C-2.99 21 -3.98 21 -5 21 C-4.6390625 20.40574219 -4.278125 19.81148437 -3.90625 19.19921875 C-0.20616744 12.59046019 0.64305104 7.51655211 0 0 Z " fill="#7B5B51" transform="translate(743,163)"/>
<path d="M0 0 C0 0.66 0 1.32 0 2 C-0.7425 2.268125 -1.485 2.53625 -2.25 2.8125 C-5.0289961 3.83787054 -5.0289961 3.83787054 -6.9375 5.75 C-7.9584375 6.36875 -7.9584375 6.36875 -9 7 C-12.25 6.1875 -12.25 6.1875 -15 5 C-12.18178397 3.12118931 -10.14357281 2.30990783 -6.9375 1.375 C-6.05964844 1.11460937 -5.18179688 0.85421875 -4.27734375 0.5859375 C-2 0 -2 0 0 0 Z " fill="#3C2F28" transform="translate(624,456)"/>
<path d="M0 0 C2 1 2 1 3 3 C1.09598862 4.90401138 -0.33425686 5.93520439 -3.046875 6.19921875 C-5.03233273 6.1886578 -7.0169914 6.09915043 -9 6 C-3.30379747 1.25316456 -3.30379747 1.25316456 0 0 Z " fill="#332824" transform="translate(656,441)"/>
<path d="M0 0 C0.66 0.66 1.32 1.32 2 2 C1.09970429 3.34444159 0.17911978 4.67531438 -0.75 6 C-1.51570312 7.11375 -1.51570312 7.11375 -2.296875 8.25 C-3.13992188 9.11625 -3.13992188 9.11625 -4 10 C-5.32 10 -6.64 10 -8 10 C-8 9.01 -8 8.02 -8 7 C-6.02678947 5.6273318 -4.02456848 4.29572383 -2 3 C-1.34 2.01 -0.68 1.02 0 0 Z " fill="#362A25" transform="translate(742,181)"/>
<path d="M0 0 C-1.62170379 1.00533667 -3.24747237 2.00411907 -4.875 3 C-6.23238281 3.8353125 -6.23238281 3.8353125 -7.6171875 4.6875 C-10 6 -10 6 -12 6 C-12 5.01 -12 4.02 -12 3 C-10.68 2.67 -9.36 2.34 -8 2 C-8 1.34 -8 0.68 -8 0 C-4.71303767 -0.79953138 -3.28976808 -1.09658936 0 0 Z " fill="#302321" transform="translate(679,417)"/>
<path d="M0 0 C3.3 0 6.6 0 10 0 C10 0.99 10 1.98 10 3 C6.7 3 3.4 3 0 3 C0 2.01 0 1.02 0 0 Z " fill="#A67C72" transform="translate(800,655)"/>
<path d="M0 0 C1.65 0.33 3.3 0.66 5 1 C5.33 2.65 5.66 4.3 6 6 C5.01 6.66 4.02 7.32 3 8 C3 6.68 3 5.36 3 4 C0.69 4 -1.62 4 -4 4 C-3.67 3.34 -3.34 2.68 -3 2 C-2.01 2 -1.02 2 0 2 C0 1.34 0 0.68 0 0 Z " fill="#1B1511" transform="translate(530,634)"/>
<path d="M0 0 C1.6792238 0.63437344 3.35008418 1.29289322 5 2 C4.67 2.66 4.34 3.32 4 4 C3.01 4 2.02 4 1 4 C1 3.34 1 2.68 1 2 C-1.3431213 2.25561323 -3.67843403 2.59270772 -6 3 C-6.33 3.66 -6.66 4.32 -7 5 C-7 3.35 -7 1.7 -7 0 C-4.26965677 -1.36517162 -2.92769462 -0.74894513 0 0 Z " fill="#A97A6D" transform="translate(534,452)"/>
<path d="M0 0 C0.66 0.33 1.32 0.66 2 1 C1.01 5.62 0.02 10.24 -1 15 C-1.99 14.67 -2.98 14.34 -4 14 C-4 13.01 -4 12.02 -4 11 C-3.34 11 -2.68 11 -2 11 C-2.04125 9.9275 -2.0825 8.855 -2.125 7.75 C-2.0114175 4.34252515 -1.78726636 2.79260369 0 0 Z " fill="#191010" transform="translate(436,647)"/>
<path d="M0 0 C6.59620253 2.32088608 6.59620253 2.32088608 8.375 5.3125 C9.04611851 8.1983096 9.59053278 11.06548489 10 14 C7.80792981 12.1210827 6.83317367 10.6518407 5.5625 8 C3.97732177 4.9564578 2.75350434 3.89896851 0 2 C0 1.34 0 0.68 0 0 Z " fill="#23150F" transform="translate(462,638)"/>
<path d="M0 0 C1.43655854 -0.08131463 2.8744483 -0.13933559 4.3125 -0.1875 C5.51326172 -0.23970703 5.51326172 -0.23970703 6.73828125 -0.29296875 C9 0 9 0 10.78125 1.3125 C12.59219053 3.81995612 12.20005332 5.99920026 12 9 C11.67 9 11.34 9 11 9 C11 7.35 11 5.7 11 4 C10.29875 3.87625 9.5975 3.7525 8.875 3.625 C5.82343613 2.96161655 2.94659062 2.02788045 0 1 C0 0.67 0 0.34 0 0 Z " fill="#3A2823" transform="translate(732,642)"/>
<path d="M0 0 C1.670625 0.061875 1.670625 0.061875 3.375 0.125 C0.152893 3.9915284 -2.77422412 5.00559018 -7.625 6.125 C-4.84462617 0.16705607 -4.84462617 0.16705607 0 0 Z " fill="#211713" transform="translate(581.625,642.875)"/>
<path d="M0 0 C0.33 0.99 0.66 1.98 1 3 C3.01508358 3.73323796 3.01508358 3.73323796 5 4 C3.02 4.99 1.04 5.98 -1 7 C-1.66 6.34 -2.32 5.68 -3 5 C-4.98 5.99 -4.98 5.99 -7 7 C-5.54744301 3.17053157 -3.57104439 1.87949705 0 0 Z " fill="#7D5D52" transform="translate(382,639)"/>
<path d="M0 0 C0.99 0.66 1.98 1.32 3 2 C2.67 3.32 2.34 4.64 2 6 C1.01 6 0.02 6 -1 6 C-1 5.01 -1 4.02 -1 3 C-4.3 3 -7.6 3 -11 3 C-11 2.67 -11 2.34 -11 2 C-10.28972656 1.93941406 -9.57945312 1.87882813 -8.84765625 1.81640625 C-7.46900391 1.69072266 -7.46900391 1.69072266 -6.0625 1.5625 C-5.14597656 1.48128906 -4.22945312 1.40007813 -3.28515625 1.31640625 C-1.03840268 1.23955024 -1.03840268 1.23955024 0 0 Z " fill="#957062" transform="translate(811,656)"/>
<path d="M0 0 C2.0625 0.4375 2.0625 0.4375 4 1 C3.67 2.65 3.34 4.3 3 6 C0.03 5.505 0.03 5.505 -3 5 C-1.125 1.125 -1.125 1.125 0 0 Z " fill="#E6B4A6" transform="translate(601,220)"/>
<path d="M0 0 C2.4375 2 2.4375 2 4 4 C2.41590006 3.88512252 0.83271037 3.75765492 -0.75 3.625 C-1.63171875 3.55539062 -2.5134375 3.48578125 -3.421875 3.4140625 C-5.99066382 3.00149945 -7.75841015 2.28839043 -10 1 C-6.40735548 -0.19754817 -3.77282526 -0.33094958 0 0 Z " fill="#33211A" transform="translate(458,642)"/>
<path d="M0 0 C0 3.63327194 -0.95586411 5.04735927 -3 8 C-3.99 8.66 -4.98 9.32 -6 10 C-6.66 9.34 -7.32 8.68 -8 8 C-5.36 5.36 -2.72 2.72 0 0 Z " fill="#332825" transform="translate(609,229)"/>
<path d="M0 0 C-0.33 1.32 -0.66 2.64 -1 4 C-1.33 3.67 -1.66 3.34 -2 3 C-3.51928038 2.92820036 -5.04167482 2.91607993 -6.5625 2.9375 C-7.80193359 2.95103516 -7.80193359 2.95103516 -9.06640625 2.96484375 C-10.02353516 2.98224609 -10.02353516 2.98224609 -11 3 C-11 2.34 -11 1.68 -11 1 C-7.26513121 0.4254048 -3.78706732 0 0 0 Z " fill="#D0A699" transform="translate(693,668)"/>
<path d="M0 0 C0.66 0 1.32 0 2 0 C1.67 2.31 1.34 4.62 1 7 C-0.32 7 -1.64 7 -3 7 C-2.38722388 4.03824877 -1.74627478 2.61941217 0 0 Z " fill="#181213" transform="translate(469,663)"/>
<path d="M0 0 C1.9375 0.8125 1.9375 0.8125 4 2 C4.33 2.99 4.66 3.98 5 5 C3.35 5.33 1.7 5.66 0 6 C-0.66 4.68 -1.32 3.36 -2 2 C-1.34 1.34 -0.68 0.68 0 0 Z " fill="#E3B8B0" transform="translate(594,642)"/>
<path d="M0 0 C-0.33 0.99 -0.66 1.98 -1 3 C-3.97 3 -6.94 3 -10 3 C-8 0 -8 0 -6.125 -0.75 C-3.80466218 -1.02298092 -2.21024918 -0.71043724 0 0 Z " fill="#161313" transform="translate(457,634)"/>
<path d="M0 0 C0.33 0.99 0.66 1.98 1 3 C-0.328125 5.26171875 -0.328125 5.26171875 -2.25 7.6875 C-2.87390625 8.49574219 -3.4978125 9.30398438 -4.140625 10.13671875 C-5.06101562 11.05904297 -5.06101562 11.05904297 -6 12 C-6.99 12 -7.98 12 -9 12 C-8.27683594 11.07767578 -8.27683594 11.07767578 -7.5390625 10.13671875 C-6.90742187 9.32847656 -6.27578125 8.52023437 -5.625 7.6875 C-4.99851562 6.88699219 -4.37203125 6.08648437 -3.7265625 5.26171875 C-2.42243282 3.55336788 -1.19218183 1.78827274 0 0 Z " fill="#3A2A24" transform="translate(562,282)"/>
<path d="M0 0 C2.6875 0.3125 2.6875 0.3125 5 1 C3.35 2.65 1.7 4.3 0 6 C-0.99 5.01 -1.98 4.02 -3 3 C-1.8125 1.4375 -1.8125 1.4375 0 0 Z " fill="#362F28" transform="translate(605,210)"/>
<path d="M0 0 C0.66 0.99 1.32 1.98 2 3 C1.125 5.6875 1.125 5.6875 0 8 C-0.66 8 -1.32 8 -2 8 C-2.33 5.69 -2.66 3.38 -3 1 C-2.01 0.67 -1.02 0.34 0 0 Z " fill="#DAACA0" transform="translate(571,657)"/>
<path d="M0 0 C0.33 0 0.66 0 1 0 C1.06058594 0.74765625 1.12117188 1.4953125 1.18359375 2.265625 C1.26738281 3.25046875 1.35117187 4.2353125 1.4375 5.25 C1.51871094 6.22453125 1.59992188 7.1990625 1.68359375 8.203125 C1.95074584 10.56461753 2.35371968 12.71901065 3 15 C1 15 1 15 -0.67578125 13.359375 C-2.42856218 10.23642609 -1.96715219 8.69688337 -1.1875 5.25 C-0.86845703 3.77273438 -0.86845703 3.77273438 -0.54296875 2.265625 C-0.36378906 1.51796875 -0.18460937 0.7703125 0 0 Z " fill="#33211E" transform="translate(436,651)"/>
<path d="M0 0 C2.95887459 -0.08069658 5.9155659 -0.14034665 8.875 -0.1875 C9.71675781 -0.21263672 10.55851563 -0.23777344 11.42578125 -0.26367188 C12.23144531 -0.27333984 13.03710938 -0.28300781 13.8671875 -0.29296875 C14.98262939 -0.31653442 14.98262939 -0.31653442 16.12060547 -0.34057617 C17.05090576 -0.17199097 17.05090576 -0.17199097 18 0 C18.66 0.99 19.32 1.98 20 3 C19.01 3.33 18.02 3.66 17 4 C17 3.01 17 2.02 17 1 C11.39 1 5.78 1 0 1 C0 0.67 0 0.34 0 0 Z " fill="#271713" transform="translate(676,637)"/>
<path d="M0 0 C2.1875 1 2.1875 1 4 2 C1.41073669 4.58926331 -0.02705279 4.37398043 -3.625 4.625 C-4.62789062 4.69976562 -5.63078125 4.77453125 -6.6640625 4.8515625 C-7.82035156 4.92503906 -7.82035156 4.92503906 -9 5 C-4.22727273 0 -4.22727273 0 0 0 Z " fill="#302927" transform="translate(683,427)"/>
<path d="M0 0 C1 2 1 2 0.375 4.3125 C-1.26624041 7.52037899 -3.36337053 9.57152549 -6 12 C-6.66 11.67 -7.32 11.34 -8 11 C-5.36 7.37 -2.72 3.74 0 0 Z " fill="#382825" transform="translate(552,296)"/>
<path d="M0 0 C-1.55500981 3.81684226 -4.03595495 6.19195732 -7 9 C-7.33 8.01 -7.66 7.02 -8 6 C-7.34 5.34 -6.68 4.68 -6 4 C-5.34 3.29875 -4.68 2.5975 -4 1.875 C-2 0 -2 0 0 0 Z " fill="#362522" transform="translate(562,265)"/>
<path d="M0 0 C0.33 0.66 0.66 1.32 1 2 C-3.95912807 7.13623978 -3.95912807 7.13623978 -7 9 C-7.99 8.67 -8.98 8.34 -10 8 C-6.7 5.36 -3.4 2.72 0 0 Z " fill="#40312B" transform="translate(636,205)"/>
<path d="M0 0 C2.64 0.66 5.28 1.32 8 2 C8 1.34 8 0.68 8 0 C8.66 0.33 9.32 0.66 10 1 C10 1.99 10 2.98 10 4 C8.375 4.75 8.375 4.75 6 5 C2.75 3.125 2.75 3.125 0 1 C0 0.67 0 0.34 0 0 Z " fill="#C19D8F" transform="translate(571,667)"/>
<path d="M0 0 C-0.125 2.3125 -0.125 2.3125 -1 5 C-4.0625 6.8125 -4.0625 6.8125 -7 8 C-7 5 -7 5 -4.625 2.3125 C-2 0 -2 0 0 0 Z " fill="#1B110C" transform="translate(407,664)"/>
<path d="M0 0 C0.33 0 0.66 0 1 0 C1 3.3 1 6.6 1 10 C-0.32 8.68 -1.64 7.36 -3 6 C-2 4 -1 2 0 0 Z " fill="#201411" transform="translate(526,652)"/>
<path d="M0 0 C1.32 0.66 2.64 1.32 4 2 C3.50168276 5.68754757 2.89932357 7.60490662 0 10 C0 9.34 0 8.68 0 8 C-0.66 8 -1.32 8 -2 8 C-2 7.34 -2 6.68 -2 6 C-1.01 5.67 -0.02 5.34 1 5 C0.67 3.35 0.34 1.7 0 0 Z " fill="#312522" transform="translate(811,641)"/>
<path d="M0 0 C0 3 0 3 -2.1875 5.25 C-5 7 -5 7 -7.8125 6.75 C-8.534375 6.5025 -9.25625 6.255 -10 6 C-6.87567603 3.47650757 -3.61939504 1.72743854 0 0 Z " fill="#CDA69A" transform="translate(654,430)"/>
<path d="M0 0 C0.99 0.66 1.98 1.32 3 2 C1.66666667 4.66666667 0.33333333 7.33333333 -1 10 C-1.66 10 -2.32 10 -3 10 C-2.01 6.7 -1.02 3.4 0 0 Z " fill="#845D53" transform="translate(508,355)"/>
<path d="M0 0 C1.32 0.66 2.64 1.32 4 2 C2.63016497 5.16115776 2.0109362 5.9927092 -1 8 C-1.625 5.6875 -1.625 5.6875 -2 3 C-1.34 2.01 -0.68 1.02 0 0 Z " fill="#2D2522" transform="translate(578,238)"/>
<path d="M0 0 C1.32 1.32 2.64 2.64 4 4 C3.01 5.32 2.02 6.64 1 8 C1 7.01 1 6.02 1 5 C0.01 4.67 -0.98 4.34 -2 4 C-1.34 2.68 -0.68 1.36 0 0 Z " fill="#976F63" transform="translate(441,642)"/>
<path d="M0 0 C2.125 0.375 2.125 0.375 4 1 C3.625 2.9375 3.625 2.9375 3 5 C2.01 5.495 2.01 5.495 1 6 C0.34 5.34 -0.32 4.68 -1 4 C-1.99 4.66 -2.98 5.32 -4 6 C-2.84826645 3.53199953 -1.95216435 1.95216435 0 0 Z " fill="#997068" transform="translate(788,641)"/>
<path d="M0 0 C0.66 0.33 1.32 0.66 2 1 C0.66667905 4.99996286 -1.4957827 5.83782337 -5 8 C-4.45773019 4.20411134 -2.79872437 2.52788007 0 0 Z " fill="#1A120F" transform="translate(444,636)"/>
<path d="M0 0 C1.4540625 0.0309375 1.4540625 0.0309375 2.9375 0.0625 C3.2675 1.0525 3.5975 2.0425 3.9375 3.0625 C1.6275 3.3925 -0.6825 3.7225 -3.0625 4.0625 C-3.3925 3.0725 -3.7225 2.0825 -4.0625 1.0625 C-3.0625 0.0625 -3.0625 0.0625 0 0 Z " fill="#1C1617" transform="translate(582.0625,633.9375)"/>
<path d="M0 0 C1.258125 -0.04125 2.51625 -0.0825 3.8125 -0.125 C4.52019531 -0.14820313 5.22789062 -0.17140625 5.95703125 -0.1953125 C8 0 8 0 11 2 C10.01 2 9.02 2 8 2 C8 2.66 8 3.32 8 4 C6.02 4 4.04 4 2 4 C2.99 3.34 3.98 2.68 5 2 C3.35 1.67 1.7 1.34 0 1 C0 0.67 0 0.34 0 0 Z " fill="#AE8479" transform="translate(450,638)"/>
<path d="M0 0 C1.98 0.66 3.96 1.32 6 2 C3.14693203 4.32472205 0.45925163 5.7508258 -3 7 C-3 6.34 -3 5.68 -3 5 C-2.34 5 -1.68 5 -1 5 C-0.67 3.35 -0.34 1.7 0 0 Z " fill="#DDB2A3" transform="translate(640,444)"/>
<path d="M0 0 C-2.68841859 2.25245881 -4.64641875 3.88213958 -8 5 C-8 3.68 -8 2.36 -8 1 C-5.07175348 0.02391783 -3.04386724 -0.08226668 0 0 Z " fill="#332625" transform="translate(665,424)"/>
<path d="M0 0 C0.99 0.33 1.98 0.66 3 1 C-1.455 4.465 -1.455 4.465 -6 8 C-6.33 7.34 -6.66 6.68 -7 6 C-2.25 1.125 -2.25 1.125 0 0 Z " fill="#41302A" transform="translate(637,185)"/>
<path d="M0 0 C0.99 0 1.98 0 3 0 C3 1.65 3 3.3 3 5 C1.35 5 -0.3 5 -2 5 C-1.125 1.125 -1.125 1.125 0 0 Z " fill="#AB7768" transform="translate(811,661)"/>
<path d="M0 0 C2.95929119 2.75520215 5.03681826 5.46627288 7 9 C6.01 9 5.02 9 4 9 C0.8217901 5.7309841 0 4.67834007 0 0 Z " fill="#301D16" transform="translate(510,647)"/>
<path d="M0 0 C0.33 0.99 0.66 1.98 1 3 C-2.63 2.67 -6.26 2.34 -10 2 C-6.3558226 -0.4294516 -4.28758728 -0.16179575 0 0 Z " fill="#2A1C14" transform="translate(394,642)"/>
<path d="M0 0 C1.32 0.66 2.64 1.32 4 2 C2.68 3.32 1.36 4.64 0 6 C-0.99 5.01 -1.98 4.02 -3 3 C-2.34 3 -1.68 3 -1 3 C-0.67 2.01 -0.34 1.02 0 0 Z " fill="#D0AA9C" transform="translate(591,639)"/>
<path d="M0 0 C-0.99 0.33 -1.98 0.66 -3 1 C-3 1.66 -3 2.32 -3 3 C-5 5 -5 5 -7 6 C-7.33 4.35 -7.66 2.7 -8 1 C-2.25 -1.125 -2.25 -1.125 0 0 Z " fill="#343434" transform="translate(921,560)"/>
<path d="M0 0 C0 3 0 3 -2.25 5.625 C-4.72881204 7.76579221 -5.83568489 8.64840943 -9 9 C-6 6 -3 3 0 0 Z " fill="#3E2C26" transform="translate(706,407)"/>
<path d="M0 0 C1.2065625 0.0309375 1.2065625 0.0309375 2.4375 0.0625 C2.7675 1.0525 3.0975 2.0425 3.4375 3.0625 C2.4475 4.0525 1.4575 5.0425 0.4375 6.0625 C0.4375 5.4025 0.4375 4.7425 0.4375 4.0625 C-0.2225 3.7325 -0.8825 3.4025 -1.5625 3.0625 C-2.2225 2.4025 -2.8825 1.7425 -3.5625 1.0625 C-2.5625 0.0625 -2.5625 0.0625 0 0 Z " fill="#926F67" transform="translate(718.5625,388.9375)"/>
<path d="M0 0 C1.07156762 4.28627048 1.0365854 4.66075382 -0.9375 8.25 C-1.31777344 8.95640625 -1.69804688 9.6628125 -2.08984375 10.390625 C-2.39019531 10.92171875 -2.69054687 11.4528125 -3 12 C-3.66 11.67 -4.32 11.34 -5 11 C-3.35 7.37 -1.7 3.74 0 0 Z " fill="#33231F" transform="translate(521,347)"/>
<path d="M0 0 C0.33 0.99 0.66 1.98 1 3 C-3.75 7.875 -3.75 7.875 -6 9 C-4.52307692 4.32307692 -4.52307692 4.32307692 -1.875 2.6875 C-1.25625 2.460625 -0.6375 2.23375 0 2 C0 1.34 0 0.68 0 0 Z " fill="#2D1F1D" transform="translate(546,306)"/>
<path d="M0 0 C0.33 0 0.66 0 1 0 C1.25 6.625 1.25 6.625 -1 10 C-1 9.01 -1 8.02 -1 7 C-3.475 8.485 -3.475 8.485 -6 10 C-5.1875 8.0625 -5.1875 8.0625 -4 6 C-3.01 5.67 -2.02 5.34 -1 5 C-0.67 3.35 -0.34 1.7 0 0 Z " fill="#352725" transform="translate(465,652)"/>
<path d="M0 0 C1.65 0 3.3 0 5 0 C5.33 1.32 5.66 2.64 6 4 C4.35 4 2.7 4 1 4 C0.67 2.68 0.34 1.36 0 0 Z " fill="#E8B6A5" transform="translate(599,452)"/>
<path d="M0 0 C2.31 0.33 4.62 0.66 7 1 C4.87219421 3.34058637 2.88437779 4.70700306 0 6 C0.185625 5.38125 0.37125 4.7625 0.5625 4.125 C1.23686176 1.95839822 1.23686176 1.95839822 0 0 Z " fill="#2F2321" transform="translate(680,410)"/>
<path d="M0 0 C0.99 0.33 1.98 0.66 3 1 C1.02 3.31 -0.96 5.62 -3 8 C-3.33 7.01 -3.66 6.02 -4 5 C-2.0625 2.3125 -2.0625 2.3125 0 0 Z " fill="#997668" transform="translate(716,394)"/>
<path d="M0 0 C0.33 0.99 0.66 1.98 1 3 C-0.32 4.32 -1.64 5.64 -3 7 C-3.99 6.67 -4.98 6.34 -6 6 C-4.02 4.02 -2.04 2.04 0 0 Z " fill="#402E29" transform="translate(600,238)"/>
<path d="M0 0 C0.99 0.33 1.98 0.66 3 1 C2.625 3.4375 2.625 3.4375 2 6 C1.01 6.495 1.01 6.495 0 7 C-1.125 2.25 -1.125 2.25 0 0 Z " fill="#E2B6A5" transform="translate(604,227)"/>
<path d="M0 0 C0.99 0 1.98 0 3 0 C2.67 1.65 2.34 3.3 2 5 C0.68 5.33 -0.64 5.66 -2 6 C-1.34 4.02 -0.68 2.04 0 0 Z " fill="#F3C0B3" transform="translate(619,202)"/>
<path d="M0 0 C-1 3 -1 3 -2.8125 4.25 C-5.33943414 5.11637742 -6.52221994 4.88492145 -9 4 C-3.375 0 -3.375 0 0 0 Z " fill="#D3AA9D" transform="translate(654,177)"/>
<path d="M0 0 C0 3 0 3 0 3 Z M-1 3 C-1.33 4.65 -1.66 6.3 -2 8 C-2.99 7.67 -3.98 7.34 -5 7 C-5 6.01 -5 5.02 -5 4 C-3 3 -3 3 -1 3 Z " fill="#D8A293" transform="translate(666,168)"/>
<path d="M0 0 C-0.33 0.99 -0.66 1.98 -1 3 C-4.0625 4.1875 -4.0625 4.1875 -7 5 C-7.33 4.34 -7.66 3.68 -8 3 C-4.93882432 0.37613513 -4.26826873 0 0 0 Z " fill="#B3877A" transform="translate(697,164)"/>
<path d="M0 0 C2 1.375 2 1.375 4 3 C4 3.66 4 4.32 4 5 C2.35 5 0.7 5 -1 5 C-1.33 4.34 -1.66 3.68 -2 3 C-1.34 2.01 -0.68 1.02 0 0 Z " fill="#342621" transform="translate(731,162)"/>
<path d="M0 0 C0.33 0.66 0.66 1.32 1 2 C1.99 2 2.98 2 4 2 C4 3.98 4 5.96 4 8 C2 6 0 4 -2 2 C-1.34 1.34 -0.68 0.68 0 0 Z " fill="#8E6759" transform="translate(808,664)"/>
<path d="M0 0 C0.33 0 0.66 0 1 0 C1 1.98 1 3.96 1 6 C1.66 6 2.32 6 3 6 C3.33 5.34 3.66 4.68 4 4 C3.38722388 6.96175123 2.74627478 8.38058783 1 11 C-0.28317892 7.15046324 -0.06643637 4.05261865 0 0 Z " fill="#946F66" transform="translate(782,651)"/>
<path d="M0 0 C1.98 0 3.96 0 6 0 C6.33 0.66 6.66 1.32 7 2 C5.02 2.66 3.04 3.32 1 4 C0.34 3.34 -0.32 2.68 -1 2 C-0.67 1.34 -0.34 0.68 0 0 Z " fill="#DCB1A3" transform="translate(606,449)"/>
<path d="M0 0 C0.99 0.99 1.98 1.98 3 3 C2.01 4.485 2.01 4.485 1 6 C1.66 6 2.32 6 3 6 C3 6.66 3 7.32 3 8 C1.68 7.34 0.36 6.68 -1 6 C-0.67 4.02 -0.34 2.04 0 0 Z " fill="#946A5C" transform="translate(514,445)"/>
<path d="M0 0 C-3.28463659 2.18975773 -6.20696275 2.99806563 -10 4 C-10 3.34 -10 2.68 -10 2 C-6.3558226 -0.4294516 -4.28758728 -0.16179575 0 0 Z " fill="#362620" transform="translate(619,445)"/>
<path d="M0 0 C0.99 0.33 1.98 0.66 3 1 C2.67 1.66 2.34 2.32 2 3 C2.66 3.33 3.32 3.66 4 4 C2.02 4.66 0.04 5.32 -2 6 C-1.34 4.02 -0.68 2.04 0 0 Z " fill="#231513" transform="translate(380,646)"/>
<path d="M0 0 C6.75 -0.125 6.75 -0.125 9 1 C9 1.66 9 2.32 9 3 C7.35 3.33 5.7 3.66 4 4 C4 3.34 4 2.68 4 2 C2.68 1.34 1.36 0.68 0 0 Z " fill="#42322C" transform="translate(581,642)"/>
<path d="M0 0 C1.32 0.33 2.64 0.66 4 1 C3.67 1.99 3.34 2.98 3 4 C1.35 4 -0.3 4 -2 4 C-1.34 2.68 -0.68 1.36 0 0 Z " fill="#976A5E" transform="translate(391,638)"/>
<path d="M0 0 C1.32 0 2.64 0 4 0 C3.67 1.32 3.34 2.64 3 4 C1.35 4.33 -0.3 4.66 -2 5 C-1.34 3.35 -0.68 1.7 0 0 Z " fill="#DEADA0" transform="translate(649,440)"/>
<path d="M0 0 C-2.62198774 2.15377564 -4.64404172 3.40072174 -8 4 C-8 3.34 -8 2.68 -8 2 C-3.61016949 -1.20338983 -3.61016949 -1.20338983 0 0 Z " fill="#392924" transform="translate(656,429)"/>
<path d="M0 0 C0.33 0.66 0.66 1.32 1 2 C-0.1875 4 -0.1875 4 -2 6 C-4.6875 6.25 -4.6875 6.25 -7 6 C-6.21625 5.38125 -5.4325 4.7625 -4.625 4.125 C-2.03162353 2.10141339 -2.03162353 2.10141339 0 0 Z " fill="#332522" transform="translate(690,420)"/>
<path d="M0 0 C0.66 1.32 1.32 2.64 2 4 C1.34 4 0.68 4 0 4 C0 4.99 0 5.98 0 7 C-1.32 6.34 -2.64 5.68 -4 5 C-2.68 3.35 -1.36 1.7 0 0 Z " fill="#382D27" transform="translate(570,272)"/>
<path d="M0 0 C0.6875 1.8125 0.6875 1.8125 1 4 C-0.4375 5.75 -0.4375 5.75 -2 7 C-2.99 6.67 -3.98 6.34 -5 6 C-3.35 4.02 -1.7 2.04 0 0 Z " fill="#352924" transform="translate(576,265)"/>
<path d="M0 0 C0.99 0.33 1.98 0.66 3 1 C1.35 2.65 -0.3 4.3 -2 6 C-2.66 5.34 -3.32 4.68 -4 4 C-3.34 4 -2.68 4 -2 4 C-2 3.34 -2 2.68 -2 2 C-1.34 2 -0.68 2 0 2 C0 1.34 0 0.68 0 0 Z " fill="#D7AB9D" transform="translate(647,192)"/>
<path d="M0 0 C0.99 0.33 1.98 0.66 3 1 C2.1875 2.9375 2.1875 2.9375 1 5 C0.01 5.33 -0.98 5.66 -2 6 C-2 5.01 -2 4.02 -2 3 C-1.34 3 -0.68 3 0 3 C0 2.01 0 1.02 0 0 Z " fill="#C89E8F" transform="translate(669,176)"/>
</svg>
